%TF.GenerationSoftware,KiCad,Pcbnew,9.0.7*%
%TF.CreationDate,2026-04-15T15:38:59-05:00*%
%TF.ProjectId,Supercap,53757065-7263-4617-902e-6b696361645f,C*%
%TF.SameCoordinates,Original*%
%TF.FileFunction,Profile,NP*%
%FSLAX46Y46*%
G04 Gerber Fmt 4.6, Leading zero omitted, Abs format (unit mm)*
G04 Created by KiCad (PCBNEW 9.0.7) date 2026-04-15 15:38:59*
%MOMM*%
%LPD*%
G01*
G04 APERTURE LIST*
%ADD10C,0.100000*%
%ADD11C,0.150000*%
%ADD12C,0.300000*%
%ADD13C,0.400000*%
%TA.AperFunction,Profile*%
%ADD14C,0.050000*%
%TD*%
G04 APERTURE END LIST*
D10*
D11*
X177002200Y-166007200D02*
X285002200Y-166007200D01*
X285002200Y-198007200D01*
X177002200Y-198007200D01*
X177002200Y-166007200D01*
D10*
D11*
X10000000Y-10000000D02*
X287002200Y-10000000D01*
X287002200Y-200007200D01*
X10000000Y-200007200D01*
X10000000Y-10000000D01*
D10*
D11*
X12000000Y-12000000D02*
X285002200Y-12000000D01*
X285002200Y-198007200D01*
X12000000Y-198007200D01*
X12000000Y-12000000D01*
D10*
D11*
X60000000Y-12000000D02*
X60000000Y-10000000D01*
D10*
D11*
X110000000Y-12000000D02*
X110000000Y-10000000D01*
D10*
D11*
X160000000Y-12000000D02*
X160000000Y-10000000D01*
D10*
D11*
X210000000Y-12000000D02*
X210000000Y-10000000D01*
D10*
D11*
X260000000Y-12000000D02*
X260000000Y-10000000D01*
D10*
D11*
X36089160Y-11593604D02*
X35346303Y-11593604D01*
X35717731Y-11593604D02*
X35717731Y-10293604D01*
X35717731Y-10293604D02*
X35593922Y-10479319D01*
X35593922Y-10479319D02*
X35470112Y-10603128D01*
X35470112Y-10603128D02*
X35346303Y-10665033D01*
D10*
D11*
X85346303Y-10417414D02*
X85408207Y-10355509D01*
X85408207Y-10355509D02*
X85532017Y-10293604D01*
X85532017Y-10293604D02*
X85841541Y-10293604D01*
X85841541Y-10293604D02*
X85965350Y-10355509D01*
X85965350Y-10355509D02*
X86027255Y-10417414D01*
X86027255Y-10417414D02*
X86089160Y-10541223D01*
X86089160Y-10541223D02*
X86089160Y-10665033D01*
X86089160Y-10665033D02*
X86027255Y-10850747D01*
X86027255Y-10850747D02*
X85284398Y-11593604D01*
X85284398Y-11593604D02*
X86089160Y-11593604D01*
D10*
D11*
X135284398Y-10293604D02*
X136089160Y-10293604D01*
X136089160Y-10293604D02*
X135655826Y-10788842D01*
X135655826Y-10788842D02*
X135841541Y-10788842D01*
X135841541Y-10788842D02*
X135965350Y-10850747D01*
X135965350Y-10850747D02*
X136027255Y-10912652D01*
X136027255Y-10912652D02*
X136089160Y-11036461D01*
X136089160Y-11036461D02*
X136089160Y-11345985D01*
X136089160Y-11345985D02*
X136027255Y-11469795D01*
X136027255Y-11469795D02*
X135965350Y-11531700D01*
X135965350Y-11531700D02*
X135841541Y-11593604D01*
X135841541Y-11593604D02*
X135470112Y-11593604D01*
X135470112Y-11593604D02*
X135346303Y-11531700D01*
X135346303Y-11531700D02*
X135284398Y-11469795D01*
D10*
D11*
X185965350Y-10726938D02*
X185965350Y-11593604D01*
X185655826Y-10231700D02*
X185346303Y-11160271D01*
X185346303Y-11160271D02*
X186151064Y-11160271D01*
D10*
D11*
X236027255Y-10293604D02*
X235408207Y-10293604D01*
X235408207Y-10293604D02*
X235346303Y-10912652D01*
X235346303Y-10912652D02*
X235408207Y-10850747D01*
X235408207Y-10850747D02*
X235532017Y-10788842D01*
X235532017Y-10788842D02*
X235841541Y-10788842D01*
X235841541Y-10788842D02*
X235965350Y-10850747D01*
X235965350Y-10850747D02*
X236027255Y-10912652D01*
X236027255Y-10912652D02*
X236089160Y-11036461D01*
X236089160Y-11036461D02*
X236089160Y-11345985D01*
X236089160Y-11345985D02*
X236027255Y-11469795D01*
X236027255Y-11469795D02*
X235965350Y-11531700D01*
X235965350Y-11531700D02*
X235841541Y-11593604D01*
X235841541Y-11593604D02*
X235532017Y-11593604D01*
X235532017Y-11593604D02*
X235408207Y-11531700D01*
X235408207Y-11531700D02*
X235346303Y-11469795D01*
D10*
D11*
X285965350Y-10293604D02*
X285717731Y-10293604D01*
X285717731Y-10293604D02*
X285593922Y-10355509D01*
X285593922Y-10355509D02*
X285532017Y-10417414D01*
X285532017Y-10417414D02*
X285408207Y-10603128D01*
X285408207Y-10603128D02*
X285346303Y-10850747D01*
X285346303Y-10850747D02*
X285346303Y-11345985D01*
X285346303Y-11345985D02*
X285408207Y-11469795D01*
X285408207Y-11469795D02*
X285470112Y-11531700D01*
X285470112Y-11531700D02*
X285593922Y-11593604D01*
X285593922Y-11593604D02*
X285841541Y-11593604D01*
X285841541Y-11593604D02*
X285965350Y-11531700D01*
X285965350Y-11531700D02*
X286027255Y-11469795D01*
X286027255Y-11469795D02*
X286089160Y-11345985D01*
X286089160Y-11345985D02*
X286089160Y-11036461D01*
X286089160Y-11036461D02*
X286027255Y-10912652D01*
X286027255Y-10912652D02*
X285965350Y-10850747D01*
X285965350Y-10850747D02*
X285841541Y-10788842D01*
X285841541Y-10788842D02*
X285593922Y-10788842D01*
X285593922Y-10788842D02*
X285470112Y-10850747D01*
X285470112Y-10850747D02*
X285408207Y-10912652D01*
X285408207Y-10912652D02*
X285346303Y-11036461D01*
D10*
D11*
X60000000Y-198007200D02*
X60000000Y-200007200D01*
D10*
D11*
X110000000Y-198007200D02*
X110000000Y-200007200D01*
D10*
D11*
X160000000Y-198007200D02*
X160000000Y-200007200D01*
D10*
D11*
X210000000Y-198007200D02*
X210000000Y-200007200D01*
D10*
D11*
X260000000Y-198007200D02*
X260000000Y-200007200D01*
D10*
D11*
X36089160Y-199600804D02*
X35346303Y-199600804D01*
X35717731Y-199600804D02*
X35717731Y-198300804D01*
X35717731Y-198300804D02*
X35593922Y-198486519D01*
X35593922Y-198486519D02*
X35470112Y-198610328D01*
X35470112Y-198610328D02*
X35346303Y-198672233D01*
D10*
D11*
X85346303Y-198424614D02*
X85408207Y-198362709D01*
X85408207Y-198362709D02*
X85532017Y-198300804D01*
X85532017Y-198300804D02*
X85841541Y-198300804D01*
X85841541Y-198300804D02*
X85965350Y-198362709D01*
X85965350Y-198362709D02*
X86027255Y-198424614D01*
X86027255Y-198424614D02*
X86089160Y-198548423D01*
X86089160Y-198548423D02*
X86089160Y-198672233D01*
X86089160Y-198672233D02*
X86027255Y-198857947D01*
X86027255Y-198857947D02*
X85284398Y-199600804D01*
X85284398Y-199600804D02*
X86089160Y-199600804D01*
D10*
D11*
X135284398Y-198300804D02*
X136089160Y-198300804D01*
X136089160Y-198300804D02*
X135655826Y-198796042D01*
X135655826Y-198796042D02*
X135841541Y-198796042D01*
X135841541Y-198796042D02*
X135965350Y-198857947D01*
X135965350Y-198857947D02*
X136027255Y-198919852D01*
X136027255Y-198919852D02*
X136089160Y-199043661D01*
X136089160Y-199043661D02*
X136089160Y-199353185D01*
X136089160Y-199353185D02*
X136027255Y-199476995D01*
X136027255Y-199476995D02*
X135965350Y-199538900D01*
X135965350Y-199538900D02*
X135841541Y-199600804D01*
X135841541Y-199600804D02*
X135470112Y-199600804D01*
X135470112Y-199600804D02*
X135346303Y-199538900D01*
X135346303Y-199538900D02*
X135284398Y-199476995D01*
D10*
D11*
X185965350Y-198734138D02*
X185965350Y-199600804D01*
X185655826Y-198238900D02*
X185346303Y-199167471D01*
X185346303Y-199167471D02*
X186151064Y-199167471D01*
D10*
D11*
X236027255Y-198300804D02*
X235408207Y-198300804D01*
X235408207Y-198300804D02*
X235346303Y-198919852D01*
X235346303Y-198919852D02*
X235408207Y-198857947D01*
X235408207Y-198857947D02*
X235532017Y-198796042D01*
X235532017Y-198796042D02*
X235841541Y-198796042D01*
X235841541Y-198796042D02*
X235965350Y-198857947D01*
X235965350Y-198857947D02*
X236027255Y-198919852D01*
X236027255Y-198919852D02*
X236089160Y-199043661D01*
X236089160Y-199043661D02*
X236089160Y-199353185D01*
X236089160Y-199353185D02*
X236027255Y-199476995D01*
X236027255Y-199476995D02*
X235965350Y-199538900D01*
X235965350Y-199538900D02*
X235841541Y-199600804D01*
X235841541Y-199600804D02*
X235532017Y-199600804D01*
X235532017Y-199600804D02*
X235408207Y-199538900D01*
X235408207Y-199538900D02*
X235346303Y-199476995D01*
D10*
D11*
X285965350Y-198300804D02*
X285717731Y-198300804D01*
X285717731Y-198300804D02*
X285593922Y-198362709D01*
X285593922Y-198362709D02*
X285532017Y-198424614D01*
X285532017Y-198424614D02*
X285408207Y-198610328D01*
X285408207Y-198610328D02*
X285346303Y-198857947D01*
X285346303Y-198857947D02*
X285346303Y-199353185D01*
X285346303Y-199353185D02*
X285408207Y-199476995D01*
X285408207Y-199476995D02*
X285470112Y-199538900D01*
X285470112Y-199538900D02*
X285593922Y-199600804D01*
X285593922Y-199600804D02*
X285841541Y-199600804D01*
X285841541Y-199600804D02*
X285965350Y-199538900D01*
X285965350Y-199538900D02*
X286027255Y-199476995D01*
X286027255Y-199476995D02*
X286089160Y-199353185D01*
X286089160Y-199353185D02*
X286089160Y-199043661D01*
X286089160Y-199043661D02*
X286027255Y-198919852D01*
X286027255Y-198919852D02*
X285965350Y-198857947D01*
X285965350Y-198857947D02*
X285841541Y-198796042D01*
X285841541Y-198796042D02*
X285593922Y-198796042D01*
X285593922Y-198796042D02*
X285470112Y-198857947D01*
X285470112Y-198857947D02*
X285408207Y-198919852D01*
X285408207Y-198919852D02*
X285346303Y-199043661D01*
D10*
D11*
X10000000Y-60000000D02*
X12000000Y-60000000D01*
D10*
D11*
X10000000Y-110000000D02*
X12000000Y-110000000D01*
D10*
D11*
X10000000Y-160000000D02*
X12000000Y-160000000D01*
D10*
D11*
X10690476Y-35222176D02*
X11309523Y-35222176D01*
X10566666Y-35593604D02*
X10999999Y-34293604D01*
X10999999Y-34293604D02*
X11433333Y-35593604D01*
D10*
D11*
X11092857Y-84912652D02*
X11278571Y-84974557D01*
X11278571Y-84974557D02*
X11340476Y-85036461D01*
X11340476Y-85036461D02*
X11402380Y-85160271D01*
X11402380Y-85160271D02*
X11402380Y-85345985D01*
X11402380Y-85345985D02*
X11340476Y-85469795D01*
X11340476Y-85469795D02*
X11278571Y-85531700D01*
X11278571Y-85531700D02*
X11154761Y-85593604D01*
X11154761Y-85593604D02*
X10659523Y-85593604D01*
X10659523Y-85593604D02*
X10659523Y-84293604D01*
X10659523Y-84293604D02*
X11092857Y-84293604D01*
X11092857Y-84293604D02*
X11216666Y-84355509D01*
X11216666Y-84355509D02*
X11278571Y-84417414D01*
X11278571Y-84417414D02*
X11340476Y-84541223D01*
X11340476Y-84541223D02*
X11340476Y-84665033D01*
X11340476Y-84665033D02*
X11278571Y-84788842D01*
X11278571Y-84788842D02*
X11216666Y-84850747D01*
X11216666Y-84850747D02*
X11092857Y-84912652D01*
X11092857Y-84912652D02*
X10659523Y-84912652D01*
D10*
D11*
X11402380Y-135469795D02*
X11340476Y-135531700D01*
X11340476Y-135531700D02*
X11154761Y-135593604D01*
X11154761Y-135593604D02*
X11030952Y-135593604D01*
X11030952Y-135593604D02*
X10845238Y-135531700D01*
X10845238Y-135531700D02*
X10721428Y-135407890D01*
X10721428Y-135407890D02*
X10659523Y-135284080D01*
X10659523Y-135284080D02*
X10597619Y-135036461D01*
X10597619Y-135036461D02*
X10597619Y-134850747D01*
X10597619Y-134850747D02*
X10659523Y-134603128D01*
X10659523Y-134603128D02*
X10721428Y-134479319D01*
X10721428Y-134479319D02*
X10845238Y-134355509D01*
X10845238Y-134355509D02*
X11030952Y-134293604D01*
X11030952Y-134293604D02*
X11154761Y-134293604D01*
X11154761Y-134293604D02*
X11340476Y-134355509D01*
X11340476Y-134355509D02*
X11402380Y-134417414D01*
D10*
D11*
X10659523Y-185593604D02*
X10659523Y-184293604D01*
X10659523Y-184293604D02*
X10969047Y-184293604D01*
X10969047Y-184293604D02*
X11154761Y-184355509D01*
X11154761Y-184355509D02*
X11278571Y-184479319D01*
X11278571Y-184479319D02*
X11340476Y-184603128D01*
X11340476Y-184603128D02*
X11402380Y-184850747D01*
X11402380Y-184850747D02*
X11402380Y-185036461D01*
X11402380Y-185036461D02*
X11340476Y-185284080D01*
X11340476Y-185284080D02*
X11278571Y-185407890D01*
X11278571Y-185407890D02*
X11154761Y-185531700D01*
X11154761Y-185531700D02*
X10969047Y-185593604D01*
X10969047Y-185593604D02*
X10659523Y-185593604D01*
D10*
D11*
X287002200Y-60000000D02*
X285002200Y-60000000D01*
D10*
D11*
X287002200Y-110000000D02*
X285002200Y-110000000D01*
D10*
D11*
X287002200Y-160000000D02*
X285002200Y-160000000D01*
D10*
D11*
X285692676Y-35222176D02*
X286311723Y-35222176D01*
X285568866Y-35593604D02*
X286002199Y-34293604D01*
X286002199Y-34293604D02*
X286435533Y-35593604D01*
D10*
D11*
X286095057Y-84912652D02*
X286280771Y-84974557D01*
X286280771Y-84974557D02*
X286342676Y-85036461D01*
X286342676Y-85036461D02*
X286404580Y-85160271D01*
X286404580Y-85160271D02*
X286404580Y-85345985D01*
X286404580Y-85345985D02*
X286342676Y-85469795D01*
X286342676Y-85469795D02*
X286280771Y-85531700D01*
X286280771Y-85531700D02*
X286156961Y-85593604D01*
X286156961Y-85593604D02*
X285661723Y-85593604D01*
X285661723Y-85593604D02*
X285661723Y-84293604D01*
X285661723Y-84293604D02*
X286095057Y-84293604D01*
X286095057Y-84293604D02*
X286218866Y-84355509D01*
X286218866Y-84355509D02*
X286280771Y-84417414D01*
X286280771Y-84417414D02*
X286342676Y-84541223D01*
X286342676Y-84541223D02*
X286342676Y-84665033D01*
X286342676Y-84665033D02*
X286280771Y-84788842D01*
X286280771Y-84788842D02*
X286218866Y-84850747D01*
X286218866Y-84850747D02*
X286095057Y-84912652D01*
X286095057Y-84912652D02*
X285661723Y-84912652D01*
D10*
D11*
X286404580Y-135469795D02*
X286342676Y-135531700D01*
X286342676Y-135531700D02*
X286156961Y-135593604D01*
X286156961Y-135593604D02*
X286033152Y-135593604D01*
X286033152Y-135593604D02*
X285847438Y-135531700D01*
X285847438Y-135531700D02*
X285723628Y-135407890D01*
X285723628Y-135407890D02*
X285661723Y-135284080D01*
X285661723Y-135284080D02*
X285599819Y-135036461D01*
X285599819Y-135036461D02*
X285599819Y-134850747D01*
X285599819Y-134850747D02*
X285661723Y-134603128D01*
X285661723Y-134603128D02*
X285723628Y-134479319D01*
X285723628Y-134479319D02*
X285847438Y-134355509D01*
X285847438Y-134355509D02*
X286033152Y-134293604D01*
X286033152Y-134293604D02*
X286156961Y-134293604D01*
X286156961Y-134293604D02*
X286342676Y-134355509D01*
X286342676Y-134355509D02*
X286404580Y-134417414D01*
D10*
D11*
X285661723Y-185593604D02*
X285661723Y-184293604D01*
X285661723Y-184293604D02*
X285971247Y-184293604D01*
X285971247Y-184293604D02*
X286156961Y-184355509D01*
X286156961Y-184355509D02*
X286280771Y-184479319D01*
X286280771Y-184479319D02*
X286342676Y-184603128D01*
X286342676Y-184603128D02*
X286404580Y-184850747D01*
X286404580Y-184850747D02*
X286404580Y-185036461D01*
X286404580Y-185036461D02*
X286342676Y-185284080D01*
X286342676Y-185284080D02*
X286280771Y-185407890D01*
X286280771Y-185407890D02*
X286156961Y-185531700D01*
X286156961Y-185531700D02*
X285971247Y-185593604D01*
X285971247Y-185593604D02*
X285661723Y-185593604D01*
D10*
D11*
X200458026Y-193793328D02*
X200458026Y-192293328D01*
X200458026Y-192293328D02*
X200815169Y-192293328D01*
X200815169Y-192293328D02*
X201029455Y-192364757D01*
X201029455Y-192364757D02*
X201172312Y-192507614D01*
X201172312Y-192507614D02*
X201243741Y-192650471D01*
X201243741Y-192650471D02*
X201315169Y-192936185D01*
X201315169Y-192936185D02*
X201315169Y-193150471D01*
X201315169Y-193150471D02*
X201243741Y-193436185D01*
X201243741Y-193436185D02*
X201172312Y-193579042D01*
X201172312Y-193579042D02*
X201029455Y-193721900D01*
X201029455Y-193721900D02*
X200815169Y-193793328D01*
X200815169Y-193793328D02*
X200458026Y-193793328D01*
X202600884Y-193793328D02*
X202600884Y-193007614D01*
X202600884Y-193007614D02*
X202529455Y-192864757D01*
X202529455Y-192864757D02*
X202386598Y-192793328D01*
X202386598Y-192793328D02*
X202100884Y-192793328D01*
X202100884Y-192793328D02*
X201958026Y-192864757D01*
X202600884Y-193721900D02*
X202458026Y-193793328D01*
X202458026Y-193793328D02*
X202100884Y-193793328D01*
X202100884Y-193793328D02*
X201958026Y-193721900D01*
X201958026Y-193721900D02*
X201886598Y-193579042D01*
X201886598Y-193579042D02*
X201886598Y-193436185D01*
X201886598Y-193436185D02*
X201958026Y-193293328D01*
X201958026Y-193293328D02*
X202100884Y-193221900D01*
X202100884Y-193221900D02*
X202458026Y-193221900D01*
X202458026Y-193221900D02*
X202600884Y-193150471D01*
X203100884Y-192793328D02*
X203672312Y-192793328D01*
X203315169Y-192293328D02*
X203315169Y-193579042D01*
X203315169Y-193579042D02*
X203386598Y-193721900D01*
X203386598Y-193721900D02*
X203529455Y-193793328D01*
X203529455Y-193793328D02*
X203672312Y-193793328D01*
X204743741Y-193721900D02*
X204600884Y-193793328D01*
X204600884Y-193793328D02*
X204315170Y-193793328D01*
X204315170Y-193793328D02*
X204172312Y-193721900D01*
X204172312Y-193721900D02*
X204100884Y-193579042D01*
X204100884Y-193579042D02*
X204100884Y-193007614D01*
X204100884Y-193007614D02*
X204172312Y-192864757D01*
X204172312Y-192864757D02*
X204315170Y-192793328D01*
X204315170Y-192793328D02*
X204600884Y-192793328D01*
X204600884Y-192793328D02*
X204743741Y-192864757D01*
X204743741Y-192864757D02*
X204815170Y-193007614D01*
X204815170Y-193007614D02*
X204815170Y-193150471D01*
X204815170Y-193150471D02*
X204100884Y-193293328D01*
X205458026Y-193650471D02*
X205529455Y-193721900D01*
X205529455Y-193721900D02*
X205458026Y-193793328D01*
X205458026Y-193793328D02*
X205386598Y-193721900D01*
X205386598Y-193721900D02*
X205458026Y-193650471D01*
X205458026Y-193650471D02*
X205458026Y-193793328D01*
X205458026Y-192864757D02*
X205529455Y-192936185D01*
X205529455Y-192936185D02*
X205458026Y-193007614D01*
X205458026Y-193007614D02*
X205386598Y-192936185D01*
X205386598Y-192936185D02*
X205458026Y-192864757D01*
X205458026Y-192864757D02*
X205458026Y-193007614D01*
X207243741Y-192436185D02*
X207315169Y-192364757D01*
X207315169Y-192364757D02*
X207458027Y-192293328D01*
X207458027Y-192293328D02*
X207815169Y-192293328D01*
X207815169Y-192293328D02*
X207958027Y-192364757D01*
X207958027Y-192364757D02*
X208029455Y-192436185D01*
X208029455Y-192436185D02*
X208100884Y-192579042D01*
X208100884Y-192579042D02*
X208100884Y-192721900D01*
X208100884Y-192721900D02*
X208029455Y-192936185D01*
X208029455Y-192936185D02*
X207172312Y-193793328D01*
X207172312Y-193793328D02*
X208100884Y-193793328D01*
X209029455Y-192293328D02*
X209172312Y-192293328D01*
X209172312Y-192293328D02*
X209315169Y-192364757D01*
X209315169Y-192364757D02*
X209386598Y-192436185D01*
X209386598Y-192436185D02*
X209458026Y-192579042D01*
X209458026Y-192579042D02*
X209529455Y-192864757D01*
X209529455Y-192864757D02*
X209529455Y-193221900D01*
X209529455Y-193221900D02*
X209458026Y-193507614D01*
X209458026Y-193507614D02*
X209386598Y-193650471D01*
X209386598Y-193650471D02*
X209315169Y-193721900D01*
X209315169Y-193721900D02*
X209172312Y-193793328D01*
X209172312Y-193793328D02*
X209029455Y-193793328D01*
X209029455Y-193793328D02*
X208886598Y-193721900D01*
X208886598Y-193721900D02*
X208815169Y-193650471D01*
X208815169Y-193650471D02*
X208743740Y-193507614D01*
X208743740Y-193507614D02*
X208672312Y-193221900D01*
X208672312Y-193221900D02*
X208672312Y-192864757D01*
X208672312Y-192864757D02*
X208743740Y-192579042D01*
X208743740Y-192579042D02*
X208815169Y-192436185D01*
X208815169Y-192436185D02*
X208886598Y-192364757D01*
X208886598Y-192364757D02*
X209029455Y-192293328D01*
X210100883Y-192436185D02*
X210172311Y-192364757D01*
X210172311Y-192364757D02*
X210315169Y-192293328D01*
X210315169Y-192293328D02*
X210672311Y-192293328D01*
X210672311Y-192293328D02*
X210815169Y-192364757D01*
X210815169Y-192364757D02*
X210886597Y-192436185D01*
X210886597Y-192436185D02*
X210958026Y-192579042D01*
X210958026Y-192579042D02*
X210958026Y-192721900D01*
X210958026Y-192721900D02*
X210886597Y-192936185D01*
X210886597Y-192936185D02*
X210029454Y-193793328D01*
X210029454Y-193793328D02*
X210958026Y-193793328D01*
X212243740Y-192293328D02*
X211958025Y-192293328D01*
X211958025Y-192293328D02*
X211815168Y-192364757D01*
X211815168Y-192364757D02*
X211743740Y-192436185D01*
X211743740Y-192436185D02*
X211600882Y-192650471D01*
X211600882Y-192650471D02*
X211529454Y-192936185D01*
X211529454Y-192936185D02*
X211529454Y-193507614D01*
X211529454Y-193507614D02*
X211600882Y-193650471D01*
X211600882Y-193650471D02*
X211672311Y-193721900D01*
X211672311Y-193721900D02*
X211815168Y-193793328D01*
X211815168Y-193793328D02*
X212100882Y-193793328D01*
X212100882Y-193793328D02*
X212243740Y-193721900D01*
X212243740Y-193721900D02*
X212315168Y-193650471D01*
X212315168Y-193650471D02*
X212386597Y-193507614D01*
X212386597Y-193507614D02*
X212386597Y-193150471D01*
X212386597Y-193150471D02*
X212315168Y-193007614D01*
X212315168Y-193007614D02*
X212243740Y-192936185D01*
X212243740Y-192936185D02*
X212100882Y-192864757D01*
X212100882Y-192864757D02*
X211815168Y-192864757D01*
X211815168Y-192864757D02*
X211672311Y-192936185D01*
X211672311Y-192936185D02*
X211600882Y-193007614D01*
X211600882Y-193007614D02*
X211529454Y-193150471D01*
X213029453Y-193221900D02*
X214172311Y-193221900D01*
X215172311Y-192293328D02*
X215315168Y-192293328D01*
X215315168Y-192293328D02*
X215458025Y-192364757D01*
X215458025Y-192364757D02*
X215529454Y-192436185D01*
X215529454Y-192436185D02*
X215600882Y-192579042D01*
X215600882Y-192579042D02*
X215672311Y-192864757D01*
X215672311Y-192864757D02*
X215672311Y-193221900D01*
X215672311Y-193221900D02*
X215600882Y-193507614D01*
X215600882Y-193507614D02*
X215529454Y-193650471D01*
X215529454Y-193650471D02*
X215458025Y-193721900D01*
X215458025Y-193721900D02*
X215315168Y-193793328D01*
X215315168Y-193793328D02*
X215172311Y-193793328D01*
X215172311Y-193793328D02*
X215029454Y-193721900D01*
X215029454Y-193721900D02*
X214958025Y-193650471D01*
X214958025Y-193650471D02*
X214886596Y-193507614D01*
X214886596Y-193507614D02*
X214815168Y-193221900D01*
X214815168Y-193221900D02*
X214815168Y-192864757D01*
X214815168Y-192864757D02*
X214886596Y-192579042D01*
X214886596Y-192579042D02*
X214958025Y-192436185D01*
X214958025Y-192436185D02*
X215029454Y-192364757D01*
X215029454Y-192364757D02*
X215172311Y-192293328D01*
X216958025Y-192793328D02*
X216958025Y-193793328D01*
X216600882Y-192221900D02*
X216243739Y-193293328D01*
X216243739Y-193293328D02*
X217172310Y-193293328D01*
X217743738Y-193221900D02*
X218886596Y-193221900D01*
X220386596Y-193793328D02*
X219529453Y-193793328D01*
X219958024Y-193793328D02*
X219958024Y-192293328D01*
X219958024Y-192293328D02*
X219815167Y-192507614D01*
X219815167Y-192507614D02*
X219672310Y-192650471D01*
X219672310Y-192650471D02*
X219529453Y-192721900D01*
X221743738Y-192293328D02*
X221029452Y-192293328D01*
X221029452Y-192293328D02*
X220958024Y-193007614D01*
X220958024Y-193007614D02*
X221029452Y-192936185D01*
X221029452Y-192936185D02*
X221172310Y-192864757D01*
X221172310Y-192864757D02*
X221529452Y-192864757D01*
X221529452Y-192864757D02*
X221672310Y-192936185D01*
X221672310Y-192936185D02*
X221743738Y-193007614D01*
X221743738Y-193007614D02*
X221815167Y-193150471D01*
X221815167Y-193150471D02*
X221815167Y-193507614D01*
X221815167Y-193507614D02*
X221743738Y-193650471D01*
X221743738Y-193650471D02*
X221672310Y-193721900D01*
X221672310Y-193721900D02*
X221529452Y-193793328D01*
X221529452Y-193793328D02*
X221172310Y-193793328D01*
X221172310Y-193793328D02*
X221029452Y-193721900D01*
X221029452Y-193721900D02*
X220958024Y-193650471D01*
D10*
D11*
X177002200Y-194507200D02*
X285002200Y-194507200D01*
D10*
D11*
X178458026Y-196593328D02*
X178458026Y-195093328D01*
X179315169Y-196593328D02*
X178672312Y-195736185D01*
X179315169Y-195093328D02*
X178458026Y-195950471D01*
X179958026Y-196593328D02*
X179958026Y-195593328D01*
X179958026Y-195093328D02*
X179886598Y-195164757D01*
X179886598Y-195164757D02*
X179958026Y-195236185D01*
X179958026Y-195236185D02*
X180029455Y-195164757D01*
X180029455Y-195164757D02*
X179958026Y-195093328D01*
X179958026Y-195093328D02*
X179958026Y-195236185D01*
X181529455Y-196450471D02*
X181458027Y-196521900D01*
X181458027Y-196521900D02*
X181243741Y-196593328D01*
X181243741Y-196593328D02*
X181100884Y-196593328D01*
X181100884Y-196593328D02*
X180886598Y-196521900D01*
X180886598Y-196521900D02*
X180743741Y-196379042D01*
X180743741Y-196379042D02*
X180672312Y-196236185D01*
X180672312Y-196236185D02*
X180600884Y-195950471D01*
X180600884Y-195950471D02*
X180600884Y-195736185D01*
X180600884Y-195736185D02*
X180672312Y-195450471D01*
X180672312Y-195450471D02*
X180743741Y-195307614D01*
X180743741Y-195307614D02*
X180886598Y-195164757D01*
X180886598Y-195164757D02*
X181100884Y-195093328D01*
X181100884Y-195093328D02*
X181243741Y-195093328D01*
X181243741Y-195093328D02*
X181458027Y-195164757D01*
X181458027Y-195164757D02*
X181529455Y-195236185D01*
X182815170Y-196593328D02*
X182815170Y-195807614D01*
X182815170Y-195807614D02*
X182743741Y-195664757D01*
X182743741Y-195664757D02*
X182600884Y-195593328D01*
X182600884Y-195593328D02*
X182315170Y-195593328D01*
X182315170Y-195593328D02*
X182172312Y-195664757D01*
X182815170Y-196521900D02*
X182672312Y-196593328D01*
X182672312Y-196593328D02*
X182315170Y-196593328D01*
X182315170Y-196593328D02*
X182172312Y-196521900D01*
X182172312Y-196521900D02*
X182100884Y-196379042D01*
X182100884Y-196379042D02*
X182100884Y-196236185D01*
X182100884Y-196236185D02*
X182172312Y-196093328D01*
X182172312Y-196093328D02*
X182315170Y-196021900D01*
X182315170Y-196021900D02*
X182672312Y-196021900D01*
X182672312Y-196021900D02*
X182815170Y-195950471D01*
X184172313Y-196593328D02*
X184172313Y-195093328D01*
X184172313Y-196521900D02*
X184029455Y-196593328D01*
X184029455Y-196593328D02*
X183743741Y-196593328D01*
X183743741Y-196593328D02*
X183600884Y-196521900D01*
X183600884Y-196521900D02*
X183529455Y-196450471D01*
X183529455Y-196450471D02*
X183458027Y-196307614D01*
X183458027Y-196307614D02*
X183458027Y-195879042D01*
X183458027Y-195879042D02*
X183529455Y-195736185D01*
X183529455Y-195736185D02*
X183600884Y-195664757D01*
X183600884Y-195664757D02*
X183743741Y-195593328D01*
X183743741Y-195593328D02*
X184029455Y-195593328D01*
X184029455Y-195593328D02*
X184172313Y-195664757D01*
X186029455Y-195807614D02*
X186529455Y-195807614D01*
X186743741Y-196593328D02*
X186029455Y-196593328D01*
X186029455Y-196593328D02*
X186029455Y-195093328D01*
X186029455Y-195093328D02*
X186743741Y-195093328D01*
X187386598Y-196450471D02*
X187458027Y-196521900D01*
X187458027Y-196521900D02*
X187386598Y-196593328D01*
X187386598Y-196593328D02*
X187315170Y-196521900D01*
X187315170Y-196521900D02*
X187386598Y-196450471D01*
X187386598Y-196450471D02*
X187386598Y-196593328D01*
X188100884Y-196593328D02*
X188100884Y-195093328D01*
X188100884Y-195093328D02*
X188458027Y-195093328D01*
X188458027Y-195093328D02*
X188672313Y-195164757D01*
X188672313Y-195164757D02*
X188815170Y-195307614D01*
X188815170Y-195307614D02*
X188886599Y-195450471D01*
X188886599Y-195450471D02*
X188958027Y-195736185D01*
X188958027Y-195736185D02*
X188958027Y-195950471D01*
X188958027Y-195950471D02*
X188886599Y-196236185D01*
X188886599Y-196236185D02*
X188815170Y-196379042D01*
X188815170Y-196379042D02*
X188672313Y-196521900D01*
X188672313Y-196521900D02*
X188458027Y-196593328D01*
X188458027Y-196593328D02*
X188100884Y-196593328D01*
X189600884Y-196450471D02*
X189672313Y-196521900D01*
X189672313Y-196521900D02*
X189600884Y-196593328D01*
X189600884Y-196593328D02*
X189529456Y-196521900D01*
X189529456Y-196521900D02*
X189600884Y-196450471D01*
X189600884Y-196450471D02*
X189600884Y-196593328D01*
X190243742Y-196164757D02*
X190958028Y-196164757D01*
X190100885Y-196593328D02*
X190600885Y-195093328D01*
X190600885Y-195093328D02*
X191100885Y-196593328D01*
X191600884Y-196450471D02*
X191672313Y-196521900D01*
X191672313Y-196521900D02*
X191600884Y-196593328D01*
X191600884Y-196593328D02*
X191529456Y-196521900D01*
X191529456Y-196521900D02*
X191600884Y-196450471D01*
X191600884Y-196450471D02*
X191600884Y-196593328D01*
X193529456Y-196593328D02*
X193815170Y-196593328D01*
X193815170Y-196593328D02*
X193958027Y-196521900D01*
X193958027Y-196521900D02*
X194029456Y-196450471D01*
X194029456Y-196450471D02*
X194172313Y-196236185D01*
X194172313Y-196236185D02*
X194243742Y-195950471D01*
X194243742Y-195950471D02*
X194243742Y-195379042D01*
X194243742Y-195379042D02*
X194172313Y-195236185D01*
X194172313Y-195236185D02*
X194100885Y-195164757D01*
X194100885Y-195164757D02*
X193958027Y-195093328D01*
X193958027Y-195093328D02*
X193672313Y-195093328D01*
X193672313Y-195093328D02*
X193529456Y-195164757D01*
X193529456Y-195164757D02*
X193458027Y-195236185D01*
X193458027Y-195236185D02*
X193386599Y-195379042D01*
X193386599Y-195379042D02*
X193386599Y-195736185D01*
X193386599Y-195736185D02*
X193458027Y-195879042D01*
X193458027Y-195879042D02*
X193529456Y-195950471D01*
X193529456Y-195950471D02*
X193672313Y-196021900D01*
X193672313Y-196021900D02*
X193958027Y-196021900D01*
X193958027Y-196021900D02*
X194100885Y-195950471D01*
X194100885Y-195950471D02*
X194172313Y-195879042D01*
X194172313Y-195879042D02*
X194243742Y-195736185D01*
X194886598Y-196450471D02*
X194958027Y-196521900D01*
X194958027Y-196521900D02*
X194886598Y-196593328D01*
X194886598Y-196593328D02*
X194815170Y-196521900D01*
X194815170Y-196521900D02*
X194886598Y-196450471D01*
X194886598Y-196450471D02*
X194886598Y-196593328D01*
X195886599Y-195093328D02*
X196029456Y-195093328D01*
X196029456Y-195093328D02*
X196172313Y-195164757D01*
X196172313Y-195164757D02*
X196243742Y-195236185D01*
X196243742Y-195236185D02*
X196315170Y-195379042D01*
X196315170Y-195379042D02*
X196386599Y-195664757D01*
X196386599Y-195664757D02*
X196386599Y-196021900D01*
X196386599Y-196021900D02*
X196315170Y-196307614D01*
X196315170Y-196307614D02*
X196243742Y-196450471D01*
X196243742Y-196450471D02*
X196172313Y-196521900D01*
X196172313Y-196521900D02*
X196029456Y-196593328D01*
X196029456Y-196593328D02*
X195886599Y-196593328D01*
X195886599Y-196593328D02*
X195743742Y-196521900D01*
X195743742Y-196521900D02*
X195672313Y-196450471D01*
X195672313Y-196450471D02*
X195600884Y-196307614D01*
X195600884Y-196307614D02*
X195529456Y-196021900D01*
X195529456Y-196021900D02*
X195529456Y-195664757D01*
X195529456Y-195664757D02*
X195600884Y-195379042D01*
X195600884Y-195379042D02*
X195672313Y-195236185D01*
X195672313Y-195236185D02*
X195743742Y-195164757D01*
X195743742Y-195164757D02*
X195886599Y-195093328D01*
X197029455Y-196450471D02*
X197100884Y-196521900D01*
X197100884Y-196521900D02*
X197029455Y-196593328D01*
X197029455Y-196593328D02*
X196958027Y-196521900D01*
X196958027Y-196521900D02*
X197029455Y-196450471D01*
X197029455Y-196450471D02*
X197029455Y-196593328D01*
X197600884Y-195093328D02*
X198600884Y-195093328D01*
X198600884Y-195093328D02*
X197958027Y-196593328D01*
D10*
D11*
X177002200Y-191507200D02*
X285002200Y-191507200D01*
D10*
D12*
X264413853Y-193785528D02*
X263913853Y-193071242D01*
X263556710Y-193785528D02*
X263556710Y-192285528D01*
X263556710Y-192285528D02*
X264128139Y-192285528D01*
X264128139Y-192285528D02*
X264270996Y-192356957D01*
X264270996Y-192356957D02*
X264342425Y-192428385D01*
X264342425Y-192428385D02*
X264413853Y-192571242D01*
X264413853Y-192571242D02*
X264413853Y-192785528D01*
X264413853Y-192785528D02*
X264342425Y-192928385D01*
X264342425Y-192928385D02*
X264270996Y-192999814D01*
X264270996Y-192999814D02*
X264128139Y-193071242D01*
X264128139Y-193071242D02*
X263556710Y-193071242D01*
X265628139Y-193714100D02*
X265485282Y-193785528D01*
X265485282Y-193785528D02*
X265199568Y-193785528D01*
X265199568Y-193785528D02*
X265056710Y-193714100D01*
X265056710Y-193714100D02*
X264985282Y-193571242D01*
X264985282Y-193571242D02*
X264985282Y-192999814D01*
X264985282Y-192999814D02*
X265056710Y-192856957D01*
X265056710Y-192856957D02*
X265199568Y-192785528D01*
X265199568Y-192785528D02*
X265485282Y-192785528D01*
X265485282Y-192785528D02*
X265628139Y-192856957D01*
X265628139Y-192856957D02*
X265699568Y-192999814D01*
X265699568Y-192999814D02*
X265699568Y-193142671D01*
X265699568Y-193142671D02*
X264985282Y-193285528D01*
X266199567Y-192785528D02*
X266556710Y-193785528D01*
X266556710Y-193785528D02*
X266913853Y-192785528D01*
X267485281Y-193642671D02*
X267556710Y-193714100D01*
X267556710Y-193714100D02*
X267485281Y-193785528D01*
X267485281Y-193785528D02*
X267413853Y-193714100D01*
X267413853Y-193714100D02*
X267485281Y-193642671D01*
X267485281Y-193642671D02*
X267485281Y-193785528D01*
X267485281Y-192856957D02*
X267556710Y-192928385D01*
X267556710Y-192928385D02*
X267485281Y-192999814D01*
X267485281Y-192999814D02*
X267413853Y-192928385D01*
X267413853Y-192928385D02*
X267485281Y-192856957D01*
X267485281Y-192856957D02*
X267485281Y-192999814D01*
X270199567Y-193642671D02*
X270128139Y-193714100D01*
X270128139Y-193714100D02*
X269913853Y-193785528D01*
X269913853Y-193785528D02*
X269770996Y-193785528D01*
X269770996Y-193785528D02*
X269556710Y-193714100D01*
X269556710Y-193714100D02*
X269413853Y-193571242D01*
X269413853Y-193571242D02*
X269342424Y-193428385D01*
X269342424Y-193428385D02*
X269270996Y-193142671D01*
X269270996Y-193142671D02*
X269270996Y-192928385D01*
X269270996Y-192928385D02*
X269342424Y-192642671D01*
X269342424Y-192642671D02*
X269413853Y-192499814D01*
X269413853Y-192499814D02*
X269556710Y-192356957D01*
X269556710Y-192356957D02*
X269770996Y-192285528D01*
X269770996Y-192285528D02*
X269913853Y-192285528D01*
X269913853Y-192285528D02*
X270128139Y-192356957D01*
X270128139Y-192356957D02*
X270199567Y-192428385D01*
D10*
D11*
X178386598Y-193721900D02*
X178600884Y-193793328D01*
X178600884Y-193793328D02*
X178958026Y-193793328D01*
X178958026Y-193793328D02*
X179100884Y-193721900D01*
X179100884Y-193721900D02*
X179172312Y-193650471D01*
X179172312Y-193650471D02*
X179243741Y-193507614D01*
X179243741Y-193507614D02*
X179243741Y-193364757D01*
X179243741Y-193364757D02*
X179172312Y-193221900D01*
X179172312Y-193221900D02*
X179100884Y-193150471D01*
X179100884Y-193150471D02*
X178958026Y-193079042D01*
X178958026Y-193079042D02*
X178672312Y-193007614D01*
X178672312Y-193007614D02*
X178529455Y-192936185D01*
X178529455Y-192936185D02*
X178458026Y-192864757D01*
X178458026Y-192864757D02*
X178386598Y-192721900D01*
X178386598Y-192721900D02*
X178386598Y-192579042D01*
X178386598Y-192579042D02*
X178458026Y-192436185D01*
X178458026Y-192436185D02*
X178529455Y-192364757D01*
X178529455Y-192364757D02*
X178672312Y-192293328D01*
X178672312Y-192293328D02*
X179029455Y-192293328D01*
X179029455Y-192293328D02*
X179243741Y-192364757D01*
X179886597Y-193793328D02*
X179886597Y-192793328D01*
X179886597Y-192293328D02*
X179815169Y-192364757D01*
X179815169Y-192364757D02*
X179886597Y-192436185D01*
X179886597Y-192436185D02*
X179958026Y-192364757D01*
X179958026Y-192364757D02*
X179886597Y-192293328D01*
X179886597Y-192293328D02*
X179886597Y-192436185D01*
X180458026Y-192793328D02*
X181243741Y-192793328D01*
X181243741Y-192793328D02*
X180458026Y-193793328D01*
X180458026Y-193793328D02*
X181243741Y-193793328D01*
X182386598Y-193721900D02*
X182243741Y-193793328D01*
X182243741Y-193793328D02*
X181958027Y-193793328D01*
X181958027Y-193793328D02*
X181815169Y-193721900D01*
X181815169Y-193721900D02*
X181743741Y-193579042D01*
X181743741Y-193579042D02*
X181743741Y-193007614D01*
X181743741Y-193007614D02*
X181815169Y-192864757D01*
X181815169Y-192864757D02*
X181958027Y-192793328D01*
X181958027Y-192793328D02*
X182243741Y-192793328D01*
X182243741Y-192793328D02*
X182386598Y-192864757D01*
X182386598Y-192864757D02*
X182458027Y-193007614D01*
X182458027Y-193007614D02*
X182458027Y-193150471D01*
X182458027Y-193150471D02*
X181743741Y-193293328D01*
X183100883Y-193650471D02*
X183172312Y-193721900D01*
X183172312Y-193721900D02*
X183100883Y-193793328D01*
X183100883Y-193793328D02*
X183029455Y-193721900D01*
X183029455Y-193721900D02*
X183100883Y-193650471D01*
X183100883Y-193650471D02*
X183100883Y-193793328D01*
X183100883Y-192864757D02*
X183172312Y-192936185D01*
X183172312Y-192936185D02*
X183100883Y-193007614D01*
X183100883Y-193007614D02*
X183029455Y-192936185D01*
X183029455Y-192936185D02*
X183100883Y-192864757D01*
X183100883Y-192864757D02*
X183100883Y-193007614D01*
X184886598Y-193364757D02*
X185600884Y-193364757D01*
X184743741Y-193793328D02*
X185243741Y-192293328D01*
X185243741Y-192293328D02*
X185743741Y-193793328D01*
X186886598Y-192793328D02*
X186886598Y-193793328D01*
X186529455Y-192221900D02*
X186172312Y-193293328D01*
X186172312Y-193293328D02*
X187100883Y-193293328D01*
D10*
D11*
X263458026Y-196593328D02*
X263458026Y-195093328D01*
X264815170Y-196593328D02*
X264815170Y-195093328D01*
X264815170Y-196521900D02*
X264672312Y-196593328D01*
X264672312Y-196593328D02*
X264386598Y-196593328D01*
X264386598Y-196593328D02*
X264243741Y-196521900D01*
X264243741Y-196521900D02*
X264172312Y-196450471D01*
X264172312Y-196450471D02*
X264100884Y-196307614D01*
X264100884Y-196307614D02*
X264100884Y-195879042D01*
X264100884Y-195879042D02*
X264172312Y-195736185D01*
X264172312Y-195736185D02*
X264243741Y-195664757D01*
X264243741Y-195664757D02*
X264386598Y-195593328D01*
X264386598Y-195593328D02*
X264672312Y-195593328D01*
X264672312Y-195593328D02*
X264815170Y-195664757D01*
X265529455Y-196450471D02*
X265600884Y-196521900D01*
X265600884Y-196521900D02*
X265529455Y-196593328D01*
X265529455Y-196593328D02*
X265458027Y-196521900D01*
X265458027Y-196521900D02*
X265529455Y-196450471D01*
X265529455Y-196450471D02*
X265529455Y-196593328D01*
X265529455Y-195664757D02*
X265600884Y-195736185D01*
X265600884Y-195736185D02*
X265529455Y-195807614D01*
X265529455Y-195807614D02*
X265458027Y-195736185D01*
X265458027Y-195736185D02*
X265529455Y-195664757D01*
X265529455Y-195664757D02*
X265529455Y-195807614D01*
X268172313Y-196593328D02*
X267315170Y-196593328D01*
X267743741Y-196593328D02*
X267743741Y-195093328D01*
X267743741Y-195093328D02*
X267600884Y-195307614D01*
X267600884Y-195307614D02*
X267458027Y-195450471D01*
X267458027Y-195450471D02*
X267315170Y-195521900D01*
X269600884Y-196593328D02*
X268743741Y-196593328D01*
X269172312Y-196593328D02*
X269172312Y-195093328D01*
X269172312Y-195093328D02*
X269029455Y-195307614D01*
X269029455Y-195307614D02*
X268886598Y-195450471D01*
X268886598Y-195450471D02*
X268743741Y-195521900D01*
X271315169Y-195021900D02*
X270029455Y-196950471D01*
X272600884Y-196593328D02*
X271743741Y-196593328D01*
X272172312Y-196593328D02*
X272172312Y-195093328D01*
X272172312Y-195093328D02*
X272029455Y-195307614D01*
X272029455Y-195307614D02*
X271886598Y-195450471D01*
X271886598Y-195450471D02*
X271743741Y-195521900D01*
X274029455Y-196593328D02*
X273172312Y-196593328D01*
X273600883Y-196593328D02*
X273600883Y-195093328D01*
X273600883Y-195093328D02*
X273458026Y-195307614D01*
X273458026Y-195307614D02*
X273315169Y-195450471D01*
X273315169Y-195450471D02*
X273172312Y-195521900D01*
D10*
D11*
X177002200Y-187507200D02*
X285002200Y-187507200D01*
D10*
D13*
X178693928Y-188211638D02*
X179836785Y-188211638D01*
X179015357Y-190211638D02*
X179265357Y-188211638D01*
X180253452Y-190211638D02*
X180420119Y-188878304D01*
X180503452Y-188211638D02*
X180396309Y-188306876D01*
X180396309Y-188306876D02*
X180479643Y-188402114D01*
X180479643Y-188402114D02*
X180586786Y-188306876D01*
X180586786Y-188306876D02*
X180503452Y-188211638D01*
X180503452Y-188211638D02*
X180479643Y-188402114D01*
X181086786Y-188878304D02*
X181848690Y-188878304D01*
X181455833Y-188211638D02*
X181241548Y-189925923D01*
X181241548Y-189925923D02*
X181312976Y-190116400D01*
X181312976Y-190116400D02*
X181491548Y-190211638D01*
X181491548Y-190211638D02*
X181682024Y-190211638D01*
X182634405Y-190211638D02*
X182455833Y-190116400D01*
X182455833Y-190116400D02*
X182384405Y-189925923D01*
X182384405Y-189925923D02*
X182598690Y-188211638D01*
X184170119Y-190116400D02*
X183967738Y-190211638D01*
X183967738Y-190211638D02*
X183586785Y-190211638D01*
X183586785Y-190211638D02*
X183408214Y-190116400D01*
X183408214Y-190116400D02*
X183336785Y-189925923D01*
X183336785Y-189925923D02*
X183432024Y-189164019D01*
X183432024Y-189164019D02*
X183551071Y-188973542D01*
X183551071Y-188973542D02*
X183753452Y-188878304D01*
X183753452Y-188878304D02*
X184134404Y-188878304D01*
X184134404Y-188878304D02*
X184312976Y-188973542D01*
X184312976Y-188973542D02*
X184384404Y-189164019D01*
X184384404Y-189164019D02*
X184360595Y-189354495D01*
X184360595Y-189354495D02*
X183384404Y-189544971D01*
X185134405Y-190021161D02*
X185217738Y-190116400D01*
X185217738Y-190116400D02*
X185110595Y-190211638D01*
X185110595Y-190211638D02*
X185027262Y-190116400D01*
X185027262Y-190116400D02*
X185134405Y-190021161D01*
X185134405Y-190021161D02*
X185110595Y-190211638D01*
X185265357Y-188973542D02*
X185348690Y-189068780D01*
X185348690Y-189068780D02*
X185241548Y-189164019D01*
X185241548Y-189164019D02*
X185158214Y-189068780D01*
X185158214Y-189068780D02*
X185265357Y-188973542D01*
X185265357Y-188973542D02*
X185241548Y-189164019D01*
X187503453Y-190116400D02*
X187777262Y-190211638D01*
X187777262Y-190211638D02*
X188253453Y-190211638D01*
X188253453Y-190211638D02*
X188455834Y-190116400D01*
X188455834Y-190116400D02*
X188562977Y-190021161D01*
X188562977Y-190021161D02*
X188682024Y-189830685D01*
X188682024Y-189830685D02*
X188705834Y-189640209D01*
X188705834Y-189640209D02*
X188634405Y-189449733D01*
X188634405Y-189449733D02*
X188551072Y-189354495D01*
X188551072Y-189354495D02*
X188372501Y-189259257D01*
X188372501Y-189259257D02*
X188003453Y-189164019D01*
X188003453Y-189164019D02*
X187824881Y-189068780D01*
X187824881Y-189068780D02*
X187741548Y-188973542D01*
X187741548Y-188973542D02*
X187670120Y-188783066D01*
X187670120Y-188783066D02*
X187693929Y-188592590D01*
X187693929Y-188592590D02*
X187812977Y-188402114D01*
X187812977Y-188402114D02*
X187920120Y-188306876D01*
X187920120Y-188306876D02*
X188122501Y-188211638D01*
X188122501Y-188211638D02*
X188598691Y-188211638D01*
X188598691Y-188211638D02*
X188872501Y-188306876D01*
X190515358Y-188878304D02*
X190348691Y-190211638D01*
X189658215Y-188878304D02*
X189527263Y-189925923D01*
X189527263Y-189925923D02*
X189598691Y-190116400D01*
X189598691Y-190116400D02*
X189777263Y-190211638D01*
X189777263Y-190211638D02*
X190062977Y-190211638D01*
X190062977Y-190211638D02*
X190265358Y-190116400D01*
X190265358Y-190116400D02*
X190372501Y-190021161D01*
X191467739Y-188878304D02*
X191217739Y-190878304D01*
X191455834Y-188973542D02*
X191658215Y-188878304D01*
X191658215Y-188878304D02*
X192039167Y-188878304D01*
X192039167Y-188878304D02*
X192217739Y-188973542D01*
X192217739Y-188973542D02*
X192301072Y-189068780D01*
X192301072Y-189068780D02*
X192372501Y-189259257D01*
X192372501Y-189259257D02*
X192301072Y-189830685D01*
X192301072Y-189830685D02*
X192182025Y-190021161D01*
X192182025Y-190021161D02*
X192074882Y-190116400D01*
X192074882Y-190116400D02*
X191872501Y-190211638D01*
X191872501Y-190211638D02*
X191491548Y-190211638D01*
X191491548Y-190211638D02*
X191312977Y-190116400D01*
X193884406Y-190116400D02*
X193682025Y-190211638D01*
X193682025Y-190211638D02*
X193301072Y-190211638D01*
X193301072Y-190211638D02*
X193122501Y-190116400D01*
X193122501Y-190116400D02*
X193051072Y-189925923D01*
X193051072Y-189925923D02*
X193146311Y-189164019D01*
X193146311Y-189164019D02*
X193265358Y-188973542D01*
X193265358Y-188973542D02*
X193467739Y-188878304D01*
X193467739Y-188878304D02*
X193848691Y-188878304D01*
X193848691Y-188878304D02*
X194027263Y-188973542D01*
X194027263Y-188973542D02*
X194098691Y-189164019D01*
X194098691Y-189164019D02*
X194074882Y-189354495D01*
X194074882Y-189354495D02*
X193098691Y-189544971D01*
X194824882Y-190211638D02*
X194991549Y-188878304D01*
X194943930Y-189259257D02*
X195062977Y-189068780D01*
X195062977Y-189068780D02*
X195170120Y-188973542D01*
X195170120Y-188973542D02*
X195372501Y-188878304D01*
X195372501Y-188878304D02*
X195562977Y-188878304D01*
X196932025Y-190116400D02*
X196729644Y-190211638D01*
X196729644Y-190211638D02*
X196348692Y-190211638D01*
X196348692Y-190211638D02*
X196170120Y-190116400D01*
X196170120Y-190116400D02*
X196086787Y-190021161D01*
X196086787Y-190021161D02*
X196015358Y-189830685D01*
X196015358Y-189830685D02*
X196086787Y-189259257D01*
X196086787Y-189259257D02*
X196205834Y-189068780D01*
X196205834Y-189068780D02*
X196312977Y-188973542D01*
X196312977Y-188973542D02*
X196515358Y-188878304D01*
X196515358Y-188878304D02*
X196896311Y-188878304D01*
X196896311Y-188878304D02*
X197074882Y-188973542D01*
X198634406Y-190211638D02*
X198765358Y-189164019D01*
X198765358Y-189164019D02*
X198693930Y-188973542D01*
X198693930Y-188973542D02*
X198515358Y-188878304D01*
X198515358Y-188878304D02*
X198134406Y-188878304D01*
X198134406Y-188878304D02*
X197932025Y-188973542D01*
X198646311Y-190116400D02*
X198443930Y-190211638D01*
X198443930Y-190211638D02*
X197967739Y-190211638D01*
X197967739Y-190211638D02*
X197789168Y-190116400D01*
X197789168Y-190116400D02*
X197717739Y-189925923D01*
X197717739Y-189925923D02*
X197741549Y-189735447D01*
X197741549Y-189735447D02*
X197860597Y-189544971D01*
X197860597Y-189544971D02*
X198062978Y-189449733D01*
X198062978Y-189449733D02*
X198539168Y-189449733D01*
X198539168Y-189449733D02*
X198741549Y-189354495D01*
X199753454Y-188878304D02*
X199503454Y-190878304D01*
X199741549Y-188973542D02*
X199943930Y-188878304D01*
X199943930Y-188878304D02*
X200324882Y-188878304D01*
X200324882Y-188878304D02*
X200503454Y-188973542D01*
X200503454Y-188973542D02*
X200586787Y-189068780D01*
X200586787Y-189068780D02*
X200658216Y-189259257D01*
X200658216Y-189259257D02*
X200586787Y-189830685D01*
X200586787Y-189830685D02*
X200467740Y-190021161D01*
X200467740Y-190021161D02*
X200360597Y-190116400D01*
X200360597Y-190116400D02*
X200158216Y-190211638D01*
X200158216Y-190211638D02*
X199777263Y-190211638D01*
X199777263Y-190211638D02*
X199598692Y-190116400D01*
X204086788Y-190021161D02*
X203979645Y-190116400D01*
X203979645Y-190116400D02*
X203682026Y-190211638D01*
X203682026Y-190211638D02*
X203491550Y-190211638D01*
X203491550Y-190211638D02*
X203217740Y-190116400D01*
X203217740Y-190116400D02*
X203051074Y-189925923D01*
X203051074Y-189925923D02*
X202979645Y-189735447D01*
X202979645Y-189735447D02*
X202932026Y-189354495D01*
X202932026Y-189354495D02*
X202967740Y-189068780D01*
X202967740Y-189068780D02*
X203110597Y-188687828D01*
X203110597Y-188687828D02*
X203229645Y-188497352D01*
X203229645Y-188497352D02*
X203443931Y-188306876D01*
X203443931Y-188306876D02*
X203741550Y-188211638D01*
X203741550Y-188211638D02*
X203932026Y-188211638D01*
X203932026Y-188211638D02*
X204205836Y-188306876D01*
X204205836Y-188306876D02*
X204289169Y-188402114D01*
X205205836Y-190211638D02*
X205027264Y-190116400D01*
X205027264Y-190116400D02*
X204943931Y-190021161D01*
X204943931Y-190021161D02*
X204872502Y-189830685D01*
X204872502Y-189830685D02*
X204943931Y-189259257D01*
X204943931Y-189259257D02*
X205062978Y-189068780D01*
X205062978Y-189068780D02*
X205170121Y-188973542D01*
X205170121Y-188973542D02*
X205372502Y-188878304D01*
X205372502Y-188878304D02*
X205658216Y-188878304D01*
X205658216Y-188878304D02*
X205836788Y-188973542D01*
X205836788Y-188973542D02*
X205920121Y-189068780D01*
X205920121Y-189068780D02*
X205991550Y-189259257D01*
X205991550Y-189259257D02*
X205920121Y-189830685D01*
X205920121Y-189830685D02*
X205801074Y-190021161D01*
X205801074Y-190021161D02*
X205693931Y-190116400D01*
X205693931Y-190116400D02*
X205491550Y-190211638D01*
X205491550Y-190211638D02*
X205205836Y-190211638D01*
X206896312Y-188878304D02*
X206729645Y-190211638D01*
X206872502Y-189068780D02*
X206979645Y-188973542D01*
X206979645Y-188973542D02*
X207182026Y-188878304D01*
X207182026Y-188878304D02*
X207467740Y-188878304D01*
X207467740Y-188878304D02*
X207646312Y-188973542D01*
X207646312Y-188973542D02*
X207717740Y-189164019D01*
X207717740Y-189164019D02*
X207586788Y-190211638D01*
X208515360Y-188878304D02*
X208824884Y-190211638D01*
X208824884Y-190211638D02*
X209467741Y-188878304D01*
X210836789Y-190116400D02*
X210634408Y-190211638D01*
X210634408Y-190211638D02*
X210253455Y-190211638D01*
X210253455Y-190211638D02*
X210074884Y-190116400D01*
X210074884Y-190116400D02*
X210003455Y-189925923D01*
X210003455Y-189925923D02*
X210098694Y-189164019D01*
X210098694Y-189164019D02*
X210217741Y-188973542D01*
X210217741Y-188973542D02*
X210420122Y-188878304D01*
X210420122Y-188878304D02*
X210801074Y-188878304D01*
X210801074Y-188878304D02*
X210979646Y-188973542D01*
X210979646Y-188973542D02*
X211051074Y-189164019D01*
X211051074Y-189164019D02*
X211027265Y-189354495D01*
X211027265Y-189354495D02*
X210051074Y-189544971D01*
X211777265Y-190211638D02*
X211943932Y-188878304D01*
X211896313Y-189259257D02*
X212015360Y-189068780D01*
X212015360Y-189068780D02*
X212122503Y-188973542D01*
X212122503Y-188973542D02*
X212324884Y-188878304D01*
X212324884Y-188878304D02*
X212515360Y-188878304D01*
X212896313Y-188878304D02*
X213658217Y-188878304D01*
X213265360Y-188211638D02*
X213051075Y-189925923D01*
X213051075Y-189925923D02*
X213122503Y-190116400D01*
X213122503Y-190116400D02*
X213301075Y-190211638D01*
X213301075Y-190211638D02*
X213491551Y-190211638D01*
X214932027Y-190116400D02*
X214729646Y-190211638D01*
X214729646Y-190211638D02*
X214348693Y-190211638D01*
X214348693Y-190211638D02*
X214170122Y-190116400D01*
X214170122Y-190116400D02*
X214098693Y-189925923D01*
X214098693Y-189925923D02*
X214193932Y-189164019D01*
X214193932Y-189164019D02*
X214312979Y-188973542D01*
X214312979Y-188973542D02*
X214515360Y-188878304D01*
X214515360Y-188878304D02*
X214896312Y-188878304D01*
X214896312Y-188878304D02*
X215074884Y-188973542D01*
X215074884Y-188973542D02*
X215146312Y-189164019D01*
X215146312Y-189164019D02*
X215122503Y-189354495D01*
X215122503Y-189354495D02*
X214146312Y-189544971D01*
X215872503Y-190211638D02*
X216039170Y-188878304D01*
X215991551Y-189259257D02*
X216110598Y-189068780D01*
X216110598Y-189068780D02*
X216217741Y-188973542D01*
X216217741Y-188973542D02*
X216420122Y-188878304D01*
X216420122Y-188878304D02*
X216610598Y-188878304D01*
X219432027Y-189164019D02*
X219705837Y-189259257D01*
X219705837Y-189259257D02*
X219789170Y-189354495D01*
X219789170Y-189354495D02*
X219860599Y-189544971D01*
X219860599Y-189544971D02*
X219824884Y-189830685D01*
X219824884Y-189830685D02*
X219705837Y-190021161D01*
X219705837Y-190021161D02*
X219598694Y-190116400D01*
X219598694Y-190116400D02*
X219396313Y-190211638D01*
X219396313Y-190211638D02*
X218634408Y-190211638D01*
X218634408Y-190211638D02*
X218884408Y-188211638D01*
X218884408Y-188211638D02*
X219551075Y-188211638D01*
X219551075Y-188211638D02*
X219729646Y-188306876D01*
X219729646Y-188306876D02*
X219812980Y-188402114D01*
X219812980Y-188402114D02*
X219884408Y-188592590D01*
X219884408Y-188592590D02*
X219860599Y-188783066D01*
X219860599Y-188783066D02*
X219741551Y-188973542D01*
X219741551Y-188973542D02*
X219634408Y-189068780D01*
X219634408Y-189068780D02*
X219432027Y-189164019D01*
X219432027Y-189164019D02*
X218765361Y-189164019D01*
X220920123Y-190211638D02*
X220741551Y-190116400D01*
X220741551Y-190116400D02*
X220658218Y-190021161D01*
X220658218Y-190021161D02*
X220586789Y-189830685D01*
X220586789Y-189830685D02*
X220658218Y-189259257D01*
X220658218Y-189259257D02*
X220777265Y-189068780D01*
X220777265Y-189068780D02*
X220884408Y-188973542D01*
X220884408Y-188973542D02*
X221086789Y-188878304D01*
X221086789Y-188878304D02*
X221372503Y-188878304D01*
X221372503Y-188878304D02*
X221551075Y-188973542D01*
X221551075Y-188973542D02*
X221634408Y-189068780D01*
X221634408Y-189068780D02*
X221705837Y-189259257D01*
X221705837Y-189259257D02*
X221634408Y-189830685D01*
X221634408Y-189830685D02*
X221515361Y-190021161D01*
X221515361Y-190021161D02*
X221408218Y-190116400D01*
X221408218Y-190116400D02*
X221205837Y-190211638D01*
X221205837Y-190211638D02*
X220920123Y-190211638D01*
X223301075Y-190211638D02*
X223432027Y-189164019D01*
X223432027Y-189164019D02*
X223360599Y-188973542D01*
X223360599Y-188973542D02*
X223182027Y-188878304D01*
X223182027Y-188878304D02*
X222801075Y-188878304D01*
X222801075Y-188878304D02*
X222598694Y-188973542D01*
X223312980Y-190116400D02*
X223110599Y-190211638D01*
X223110599Y-190211638D02*
X222634408Y-190211638D01*
X222634408Y-190211638D02*
X222455837Y-190116400D01*
X222455837Y-190116400D02*
X222384408Y-189925923D01*
X222384408Y-189925923D02*
X222408218Y-189735447D01*
X222408218Y-189735447D02*
X222527266Y-189544971D01*
X222527266Y-189544971D02*
X222729647Y-189449733D01*
X222729647Y-189449733D02*
X223205837Y-189449733D01*
X223205837Y-189449733D02*
X223408218Y-189354495D01*
X224253456Y-190211638D02*
X224420123Y-188878304D01*
X224372504Y-189259257D02*
X224491551Y-189068780D01*
X224491551Y-189068780D02*
X224598694Y-188973542D01*
X224598694Y-188973542D02*
X224801075Y-188878304D01*
X224801075Y-188878304D02*
X224991551Y-188878304D01*
X226348694Y-190211638D02*
X226598694Y-188211638D01*
X226360599Y-190116400D02*
X226158218Y-190211638D01*
X226158218Y-190211638D02*
X225777266Y-190211638D01*
X225777266Y-190211638D02*
X225598694Y-190116400D01*
X225598694Y-190116400D02*
X225515361Y-190021161D01*
X225515361Y-190021161D02*
X225443932Y-189830685D01*
X225443932Y-189830685D02*
X225515361Y-189259257D01*
X225515361Y-189259257D02*
X225634408Y-189068780D01*
X225634408Y-189068780D02*
X225741551Y-188973542D01*
X225741551Y-188973542D02*
X225943932Y-188878304D01*
X225943932Y-188878304D02*
X226324885Y-188878304D01*
X226324885Y-188878304D02*
X226503456Y-188973542D01*
D10*
D11*
X178958026Y-185607614D02*
X178458026Y-185607614D01*
X178458026Y-186393328D02*
X178458026Y-184893328D01*
X178458026Y-184893328D02*
X179172312Y-184893328D01*
X179743740Y-186393328D02*
X179743740Y-185393328D01*
X179743740Y-184893328D02*
X179672312Y-184964757D01*
X179672312Y-184964757D02*
X179743740Y-185036185D01*
X179743740Y-185036185D02*
X179815169Y-184964757D01*
X179815169Y-184964757D02*
X179743740Y-184893328D01*
X179743740Y-184893328D02*
X179743740Y-185036185D01*
X180672312Y-186393328D02*
X180529455Y-186321900D01*
X180529455Y-186321900D02*
X180458026Y-186179042D01*
X180458026Y-186179042D02*
X180458026Y-184893328D01*
X181815169Y-186321900D02*
X181672312Y-186393328D01*
X181672312Y-186393328D02*
X181386598Y-186393328D01*
X181386598Y-186393328D02*
X181243740Y-186321900D01*
X181243740Y-186321900D02*
X181172312Y-186179042D01*
X181172312Y-186179042D02*
X181172312Y-185607614D01*
X181172312Y-185607614D02*
X181243740Y-185464757D01*
X181243740Y-185464757D02*
X181386598Y-185393328D01*
X181386598Y-185393328D02*
X181672312Y-185393328D01*
X181672312Y-185393328D02*
X181815169Y-185464757D01*
X181815169Y-185464757D02*
X181886598Y-185607614D01*
X181886598Y-185607614D02*
X181886598Y-185750471D01*
X181886598Y-185750471D02*
X181172312Y-185893328D01*
X182529454Y-186250471D02*
X182600883Y-186321900D01*
X182600883Y-186321900D02*
X182529454Y-186393328D01*
X182529454Y-186393328D02*
X182458026Y-186321900D01*
X182458026Y-186321900D02*
X182529454Y-186250471D01*
X182529454Y-186250471D02*
X182529454Y-186393328D01*
X182529454Y-185464757D02*
X182600883Y-185536185D01*
X182600883Y-185536185D02*
X182529454Y-185607614D01*
X182529454Y-185607614D02*
X182458026Y-185536185D01*
X182458026Y-185536185D02*
X182529454Y-185464757D01*
X182529454Y-185464757D02*
X182529454Y-185607614D01*
X184315169Y-186321900D02*
X184529455Y-186393328D01*
X184529455Y-186393328D02*
X184886597Y-186393328D01*
X184886597Y-186393328D02*
X185029455Y-186321900D01*
X185029455Y-186321900D02*
X185100883Y-186250471D01*
X185100883Y-186250471D02*
X185172312Y-186107614D01*
X185172312Y-186107614D02*
X185172312Y-185964757D01*
X185172312Y-185964757D02*
X185100883Y-185821900D01*
X185100883Y-185821900D02*
X185029455Y-185750471D01*
X185029455Y-185750471D02*
X184886597Y-185679042D01*
X184886597Y-185679042D02*
X184600883Y-185607614D01*
X184600883Y-185607614D02*
X184458026Y-185536185D01*
X184458026Y-185536185D02*
X184386597Y-185464757D01*
X184386597Y-185464757D02*
X184315169Y-185321900D01*
X184315169Y-185321900D02*
X184315169Y-185179042D01*
X184315169Y-185179042D02*
X184386597Y-185036185D01*
X184386597Y-185036185D02*
X184458026Y-184964757D01*
X184458026Y-184964757D02*
X184600883Y-184893328D01*
X184600883Y-184893328D02*
X184958026Y-184893328D01*
X184958026Y-184893328D02*
X185172312Y-184964757D01*
X186458026Y-185393328D02*
X186458026Y-186393328D01*
X185815168Y-185393328D02*
X185815168Y-186179042D01*
X185815168Y-186179042D02*
X185886597Y-186321900D01*
X185886597Y-186321900D02*
X186029454Y-186393328D01*
X186029454Y-186393328D02*
X186243740Y-186393328D01*
X186243740Y-186393328D02*
X186386597Y-186321900D01*
X186386597Y-186321900D02*
X186458026Y-186250471D01*
X187172311Y-185393328D02*
X187172311Y-186893328D01*
X187172311Y-185464757D02*
X187315169Y-185393328D01*
X187315169Y-185393328D02*
X187600883Y-185393328D01*
X187600883Y-185393328D02*
X187743740Y-185464757D01*
X187743740Y-185464757D02*
X187815169Y-185536185D01*
X187815169Y-185536185D02*
X187886597Y-185679042D01*
X187886597Y-185679042D02*
X187886597Y-186107614D01*
X187886597Y-186107614D02*
X187815169Y-186250471D01*
X187815169Y-186250471D02*
X187743740Y-186321900D01*
X187743740Y-186321900D02*
X187600883Y-186393328D01*
X187600883Y-186393328D02*
X187315169Y-186393328D01*
X187315169Y-186393328D02*
X187172311Y-186321900D01*
X189100883Y-186321900D02*
X188958026Y-186393328D01*
X188958026Y-186393328D02*
X188672312Y-186393328D01*
X188672312Y-186393328D02*
X188529454Y-186321900D01*
X188529454Y-186321900D02*
X188458026Y-186179042D01*
X188458026Y-186179042D02*
X188458026Y-185607614D01*
X188458026Y-185607614D02*
X188529454Y-185464757D01*
X188529454Y-185464757D02*
X188672312Y-185393328D01*
X188672312Y-185393328D02*
X188958026Y-185393328D01*
X188958026Y-185393328D02*
X189100883Y-185464757D01*
X189100883Y-185464757D02*
X189172312Y-185607614D01*
X189172312Y-185607614D02*
X189172312Y-185750471D01*
X189172312Y-185750471D02*
X188458026Y-185893328D01*
X189815168Y-186393328D02*
X189815168Y-185393328D01*
X189815168Y-185679042D02*
X189886597Y-185536185D01*
X189886597Y-185536185D02*
X189958026Y-185464757D01*
X189958026Y-185464757D02*
X190100883Y-185393328D01*
X190100883Y-185393328D02*
X190243740Y-185393328D01*
X191386597Y-186321900D02*
X191243739Y-186393328D01*
X191243739Y-186393328D02*
X190958025Y-186393328D01*
X190958025Y-186393328D02*
X190815168Y-186321900D01*
X190815168Y-186321900D02*
X190743739Y-186250471D01*
X190743739Y-186250471D02*
X190672311Y-186107614D01*
X190672311Y-186107614D02*
X190672311Y-185679042D01*
X190672311Y-185679042D02*
X190743739Y-185536185D01*
X190743739Y-185536185D02*
X190815168Y-185464757D01*
X190815168Y-185464757D02*
X190958025Y-185393328D01*
X190958025Y-185393328D02*
X191243739Y-185393328D01*
X191243739Y-185393328D02*
X191386597Y-185464757D01*
X192672311Y-186393328D02*
X192672311Y-185607614D01*
X192672311Y-185607614D02*
X192600882Y-185464757D01*
X192600882Y-185464757D02*
X192458025Y-185393328D01*
X192458025Y-185393328D02*
X192172311Y-185393328D01*
X192172311Y-185393328D02*
X192029453Y-185464757D01*
X192672311Y-186321900D02*
X192529453Y-186393328D01*
X192529453Y-186393328D02*
X192172311Y-186393328D01*
X192172311Y-186393328D02*
X192029453Y-186321900D01*
X192029453Y-186321900D02*
X191958025Y-186179042D01*
X191958025Y-186179042D02*
X191958025Y-186036185D01*
X191958025Y-186036185D02*
X192029453Y-185893328D01*
X192029453Y-185893328D02*
X192172311Y-185821900D01*
X192172311Y-185821900D02*
X192529453Y-185821900D01*
X192529453Y-185821900D02*
X192672311Y-185750471D01*
X193386596Y-185393328D02*
X193386596Y-186893328D01*
X193386596Y-185464757D02*
X193529454Y-185393328D01*
X193529454Y-185393328D02*
X193815168Y-185393328D01*
X193815168Y-185393328D02*
X193958025Y-185464757D01*
X193958025Y-185464757D02*
X194029454Y-185536185D01*
X194029454Y-185536185D02*
X194100882Y-185679042D01*
X194100882Y-185679042D02*
X194100882Y-186107614D01*
X194100882Y-186107614D02*
X194029454Y-186250471D01*
X194029454Y-186250471D02*
X193958025Y-186321900D01*
X193958025Y-186321900D02*
X193815168Y-186393328D01*
X193815168Y-186393328D02*
X193529454Y-186393328D01*
X193529454Y-186393328D02*
X193386596Y-186321900D01*
X194743739Y-186250471D02*
X194815168Y-186321900D01*
X194815168Y-186321900D02*
X194743739Y-186393328D01*
X194743739Y-186393328D02*
X194672311Y-186321900D01*
X194672311Y-186321900D02*
X194743739Y-186250471D01*
X194743739Y-186250471D02*
X194743739Y-186393328D01*
X195458025Y-186393328D02*
X195458025Y-184893328D01*
X195600883Y-185821900D02*
X196029454Y-186393328D01*
X196029454Y-185393328D02*
X195458025Y-185964757D01*
X196672311Y-186393328D02*
X196672311Y-185393328D01*
X196672311Y-184893328D02*
X196600883Y-184964757D01*
X196600883Y-184964757D02*
X196672311Y-185036185D01*
X196672311Y-185036185D02*
X196743740Y-184964757D01*
X196743740Y-184964757D02*
X196672311Y-184893328D01*
X196672311Y-184893328D02*
X196672311Y-185036185D01*
X198029455Y-186321900D02*
X197886597Y-186393328D01*
X197886597Y-186393328D02*
X197600883Y-186393328D01*
X197600883Y-186393328D02*
X197458026Y-186321900D01*
X197458026Y-186321900D02*
X197386597Y-186250471D01*
X197386597Y-186250471D02*
X197315169Y-186107614D01*
X197315169Y-186107614D02*
X197315169Y-185679042D01*
X197315169Y-185679042D02*
X197386597Y-185536185D01*
X197386597Y-185536185D02*
X197458026Y-185464757D01*
X197458026Y-185464757D02*
X197600883Y-185393328D01*
X197600883Y-185393328D02*
X197886597Y-185393328D01*
X197886597Y-185393328D02*
X198029455Y-185464757D01*
X199315169Y-186393328D02*
X199315169Y-185607614D01*
X199315169Y-185607614D02*
X199243740Y-185464757D01*
X199243740Y-185464757D02*
X199100883Y-185393328D01*
X199100883Y-185393328D02*
X198815169Y-185393328D01*
X198815169Y-185393328D02*
X198672311Y-185464757D01*
X199315169Y-186321900D02*
X199172311Y-186393328D01*
X199172311Y-186393328D02*
X198815169Y-186393328D01*
X198815169Y-186393328D02*
X198672311Y-186321900D01*
X198672311Y-186321900D02*
X198600883Y-186179042D01*
X198600883Y-186179042D02*
X198600883Y-186036185D01*
X198600883Y-186036185D02*
X198672311Y-185893328D01*
X198672311Y-185893328D02*
X198815169Y-185821900D01*
X198815169Y-185821900D02*
X199172311Y-185821900D01*
X199172311Y-185821900D02*
X199315169Y-185750471D01*
X200672312Y-186393328D02*
X200672312Y-184893328D01*
X200672312Y-186321900D02*
X200529454Y-186393328D01*
X200529454Y-186393328D02*
X200243740Y-186393328D01*
X200243740Y-186393328D02*
X200100883Y-186321900D01*
X200100883Y-186321900D02*
X200029454Y-186250471D01*
X200029454Y-186250471D02*
X199958026Y-186107614D01*
X199958026Y-186107614D02*
X199958026Y-185679042D01*
X199958026Y-185679042D02*
X200029454Y-185536185D01*
X200029454Y-185536185D02*
X200100883Y-185464757D01*
X200100883Y-185464757D02*
X200243740Y-185393328D01*
X200243740Y-185393328D02*
X200529454Y-185393328D01*
X200529454Y-185393328D02*
X200672312Y-185464757D01*
X201029455Y-186536185D02*
X202172312Y-186536185D01*
X202529454Y-185393328D02*
X202529454Y-186893328D01*
X202529454Y-185464757D02*
X202672312Y-185393328D01*
X202672312Y-185393328D02*
X202958026Y-185393328D01*
X202958026Y-185393328D02*
X203100883Y-185464757D01*
X203100883Y-185464757D02*
X203172312Y-185536185D01*
X203172312Y-185536185D02*
X203243740Y-185679042D01*
X203243740Y-185679042D02*
X203243740Y-186107614D01*
X203243740Y-186107614D02*
X203172312Y-186250471D01*
X203172312Y-186250471D02*
X203100883Y-186321900D01*
X203100883Y-186321900D02*
X202958026Y-186393328D01*
X202958026Y-186393328D02*
X202672312Y-186393328D01*
X202672312Y-186393328D02*
X202529454Y-186321900D01*
X204529455Y-186321900D02*
X204386597Y-186393328D01*
X204386597Y-186393328D02*
X204100883Y-186393328D01*
X204100883Y-186393328D02*
X203958026Y-186321900D01*
X203958026Y-186321900D02*
X203886597Y-186250471D01*
X203886597Y-186250471D02*
X203815169Y-186107614D01*
X203815169Y-186107614D02*
X203815169Y-185679042D01*
X203815169Y-185679042D02*
X203886597Y-185536185D01*
X203886597Y-185536185D02*
X203958026Y-185464757D01*
X203958026Y-185464757D02*
X204100883Y-185393328D01*
X204100883Y-185393328D02*
X204386597Y-185393328D01*
X204386597Y-185393328D02*
X204529455Y-185464757D01*
X205172311Y-186393328D02*
X205172311Y-184893328D01*
X205172311Y-185464757D02*
X205315169Y-185393328D01*
X205315169Y-185393328D02*
X205600883Y-185393328D01*
X205600883Y-185393328D02*
X205743740Y-185464757D01*
X205743740Y-185464757D02*
X205815169Y-185536185D01*
X205815169Y-185536185D02*
X205886597Y-185679042D01*
X205886597Y-185679042D02*
X205886597Y-186107614D01*
X205886597Y-186107614D02*
X205815169Y-186250471D01*
X205815169Y-186250471D02*
X205743740Y-186321900D01*
X205743740Y-186321900D02*
X205600883Y-186393328D01*
X205600883Y-186393328D02*
X205315169Y-186393328D01*
X205315169Y-186393328D02*
X205172311Y-186321900D01*
D10*
D11*
X177002200Y-181507200D02*
X285002200Y-181507200D01*
D10*
D11*
X178386598Y-183621900D02*
X178600884Y-183693328D01*
X178600884Y-183693328D02*
X178958026Y-183693328D01*
X178958026Y-183693328D02*
X179100884Y-183621900D01*
X179100884Y-183621900D02*
X179172312Y-183550471D01*
X179172312Y-183550471D02*
X179243741Y-183407614D01*
X179243741Y-183407614D02*
X179243741Y-183264757D01*
X179243741Y-183264757D02*
X179172312Y-183121900D01*
X179172312Y-183121900D02*
X179100884Y-183050471D01*
X179100884Y-183050471D02*
X178958026Y-182979042D01*
X178958026Y-182979042D02*
X178672312Y-182907614D01*
X178672312Y-182907614D02*
X178529455Y-182836185D01*
X178529455Y-182836185D02*
X178458026Y-182764757D01*
X178458026Y-182764757D02*
X178386598Y-182621900D01*
X178386598Y-182621900D02*
X178386598Y-182479042D01*
X178386598Y-182479042D02*
X178458026Y-182336185D01*
X178458026Y-182336185D02*
X178529455Y-182264757D01*
X178529455Y-182264757D02*
X178672312Y-182193328D01*
X178672312Y-182193328D02*
X179029455Y-182193328D01*
X179029455Y-182193328D02*
X179243741Y-182264757D01*
X179886597Y-183693328D02*
X179886597Y-182193328D01*
X180529455Y-183693328D02*
X180529455Y-182907614D01*
X180529455Y-182907614D02*
X180458026Y-182764757D01*
X180458026Y-182764757D02*
X180315169Y-182693328D01*
X180315169Y-182693328D02*
X180100883Y-182693328D01*
X180100883Y-182693328D02*
X179958026Y-182764757D01*
X179958026Y-182764757D02*
X179886597Y-182836185D01*
X181815169Y-183621900D02*
X181672312Y-183693328D01*
X181672312Y-183693328D02*
X181386598Y-183693328D01*
X181386598Y-183693328D02*
X181243740Y-183621900D01*
X181243740Y-183621900D02*
X181172312Y-183479042D01*
X181172312Y-183479042D02*
X181172312Y-182907614D01*
X181172312Y-182907614D02*
X181243740Y-182764757D01*
X181243740Y-182764757D02*
X181386598Y-182693328D01*
X181386598Y-182693328D02*
X181672312Y-182693328D01*
X181672312Y-182693328D02*
X181815169Y-182764757D01*
X181815169Y-182764757D02*
X181886598Y-182907614D01*
X181886598Y-182907614D02*
X181886598Y-183050471D01*
X181886598Y-183050471D02*
X181172312Y-183193328D01*
X183100883Y-183621900D02*
X182958026Y-183693328D01*
X182958026Y-183693328D02*
X182672312Y-183693328D01*
X182672312Y-183693328D02*
X182529454Y-183621900D01*
X182529454Y-183621900D02*
X182458026Y-183479042D01*
X182458026Y-183479042D02*
X182458026Y-182907614D01*
X182458026Y-182907614D02*
X182529454Y-182764757D01*
X182529454Y-182764757D02*
X182672312Y-182693328D01*
X182672312Y-182693328D02*
X182958026Y-182693328D01*
X182958026Y-182693328D02*
X183100883Y-182764757D01*
X183100883Y-182764757D02*
X183172312Y-182907614D01*
X183172312Y-182907614D02*
X183172312Y-183050471D01*
X183172312Y-183050471D02*
X182458026Y-183193328D01*
X183600883Y-182693328D02*
X184172311Y-182693328D01*
X183815168Y-182193328D02*
X183815168Y-183479042D01*
X183815168Y-183479042D02*
X183886597Y-183621900D01*
X183886597Y-183621900D02*
X184029454Y-183693328D01*
X184029454Y-183693328D02*
X184172311Y-183693328D01*
X184672311Y-183550471D02*
X184743740Y-183621900D01*
X184743740Y-183621900D02*
X184672311Y-183693328D01*
X184672311Y-183693328D02*
X184600883Y-183621900D01*
X184600883Y-183621900D02*
X184672311Y-183550471D01*
X184672311Y-183550471D02*
X184672311Y-183693328D01*
X184672311Y-182764757D02*
X184743740Y-182836185D01*
X184743740Y-182836185D02*
X184672311Y-182907614D01*
X184672311Y-182907614D02*
X184600883Y-182836185D01*
X184600883Y-182836185D02*
X184672311Y-182764757D01*
X184672311Y-182764757D02*
X184672311Y-182907614D01*
D10*
D12*
X178556710Y-179185528D02*
X178556710Y-180399814D01*
X178556710Y-180399814D02*
X178628139Y-180542671D01*
X178628139Y-180542671D02*
X178699568Y-180614100D01*
X178699568Y-180614100D02*
X178842425Y-180685528D01*
X178842425Y-180685528D02*
X179128139Y-180685528D01*
X179128139Y-180685528D02*
X179270996Y-180614100D01*
X179270996Y-180614100D02*
X179342425Y-180542671D01*
X179342425Y-180542671D02*
X179413853Y-180399814D01*
X179413853Y-180399814D02*
X179413853Y-179185528D01*
X179913854Y-179185528D02*
X180770997Y-179185528D01*
X180342425Y-180685528D02*
X180342425Y-179185528D01*
X182413853Y-180685528D02*
X182413853Y-179185528D01*
X183128139Y-179899814D02*
X183628139Y-179899814D01*
X183842425Y-180685528D02*
X183128139Y-180685528D01*
X183128139Y-180685528D02*
X183128139Y-179185528D01*
X183128139Y-179185528D02*
X183842425Y-179185528D01*
X184485282Y-179899814D02*
X184985282Y-179899814D01*
X185199568Y-180685528D02*
X184485282Y-180685528D01*
X184485282Y-180685528D02*
X184485282Y-179185528D01*
X184485282Y-179185528D02*
X185199568Y-179185528D01*
X185842425Y-179899814D02*
X186342425Y-179899814D01*
X186556711Y-180685528D02*
X185842425Y-180685528D01*
X185842425Y-180685528D02*
X185842425Y-179185528D01*
X185842425Y-179185528D02*
X186556711Y-179185528D01*
X189199568Y-180685528D02*
X188699568Y-179971242D01*
X188342425Y-180685528D02*
X188342425Y-179185528D01*
X188342425Y-179185528D02*
X188913854Y-179185528D01*
X188913854Y-179185528D02*
X189056711Y-179256957D01*
X189056711Y-179256957D02*
X189128140Y-179328385D01*
X189128140Y-179328385D02*
X189199568Y-179471242D01*
X189199568Y-179471242D02*
X189199568Y-179685528D01*
X189199568Y-179685528D02*
X189128140Y-179828385D01*
X189128140Y-179828385D02*
X189056711Y-179899814D01*
X189056711Y-179899814D02*
X188913854Y-179971242D01*
X188913854Y-179971242D02*
X188342425Y-179971242D01*
X189770997Y-180256957D02*
X190485283Y-180256957D01*
X189628140Y-180685528D02*
X190128140Y-179185528D01*
X190128140Y-179185528D02*
X190628140Y-180685528D01*
X191056711Y-180614100D02*
X191270997Y-180685528D01*
X191270997Y-180685528D02*
X191628139Y-180685528D01*
X191628139Y-180685528D02*
X191770997Y-180614100D01*
X191770997Y-180614100D02*
X191842425Y-180542671D01*
X191842425Y-180542671D02*
X191913854Y-180399814D01*
X191913854Y-180399814D02*
X191913854Y-180256957D01*
X191913854Y-180256957D02*
X191842425Y-180114100D01*
X191842425Y-180114100D02*
X191770997Y-180042671D01*
X191770997Y-180042671D02*
X191628139Y-179971242D01*
X191628139Y-179971242D02*
X191342425Y-179899814D01*
X191342425Y-179899814D02*
X191199568Y-179828385D01*
X191199568Y-179828385D02*
X191128139Y-179756957D01*
X191128139Y-179756957D02*
X191056711Y-179614100D01*
X191056711Y-179614100D02*
X191056711Y-179471242D01*
X191056711Y-179471242D02*
X191128139Y-179328385D01*
X191128139Y-179328385D02*
X191199568Y-179256957D01*
X191199568Y-179256957D02*
X191342425Y-179185528D01*
X191342425Y-179185528D02*
X191699568Y-179185528D01*
X191699568Y-179185528D02*
X191913854Y-179256957D01*
X193699567Y-180114100D02*
X194842425Y-180114100D01*
X196628139Y-180614100D02*
X196842425Y-180685528D01*
X196842425Y-180685528D02*
X197199567Y-180685528D01*
X197199567Y-180685528D02*
X197342425Y-180614100D01*
X197342425Y-180614100D02*
X197413853Y-180542671D01*
X197413853Y-180542671D02*
X197485282Y-180399814D01*
X197485282Y-180399814D02*
X197485282Y-180256957D01*
X197485282Y-180256957D02*
X197413853Y-180114100D01*
X197413853Y-180114100D02*
X197342425Y-180042671D01*
X197342425Y-180042671D02*
X197199567Y-179971242D01*
X197199567Y-179971242D02*
X196913853Y-179899814D01*
X196913853Y-179899814D02*
X196770996Y-179828385D01*
X196770996Y-179828385D02*
X196699567Y-179756957D01*
X196699567Y-179756957D02*
X196628139Y-179614100D01*
X196628139Y-179614100D02*
X196628139Y-179471242D01*
X196628139Y-179471242D02*
X196699567Y-179328385D01*
X196699567Y-179328385D02*
X196770996Y-179256957D01*
X196770996Y-179256957D02*
X196913853Y-179185528D01*
X196913853Y-179185528D02*
X197270996Y-179185528D01*
X197270996Y-179185528D02*
X197485282Y-179256957D01*
X197913853Y-179685528D02*
X198485281Y-179685528D01*
X198128138Y-179185528D02*
X198128138Y-180471242D01*
X198128138Y-180471242D02*
X198199567Y-180614100D01*
X198199567Y-180614100D02*
X198342424Y-180685528D01*
X198342424Y-180685528D02*
X198485281Y-180685528D01*
X199628139Y-180685528D02*
X199628139Y-179899814D01*
X199628139Y-179899814D02*
X199556710Y-179756957D01*
X199556710Y-179756957D02*
X199413853Y-179685528D01*
X199413853Y-179685528D02*
X199128139Y-179685528D01*
X199128139Y-179685528D02*
X198985281Y-179756957D01*
X199628139Y-180614100D02*
X199485281Y-180685528D01*
X199485281Y-180685528D02*
X199128139Y-180685528D01*
X199128139Y-180685528D02*
X198985281Y-180614100D01*
X198985281Y-180614100D02*
X198913853Y-180471242D01*
X198913853Y-180471242D02*
X198913853Y-180328385D01*
X198913853Y-180328385D02*
X198985281Y-180185528D01*
X198985281Y-180185528D02*
X199128139Y-180114100D01*
X199128139Y-180114100D02*
X199485281Y-180114100D01*
X199485281Y-180114100D02*
X199628139Y-180042671D01*
X200342424Y-180685528D02*
X200342424Y-179685528D01*
X200342424Y-179828385D02*
X200413853Y-179756957D01*
X200413853Y-179756957D02*
X200556710Y-179685528D01*
X200556710Y-179685528D02*
X200770996Y-179685528D01*
X200770996Y-179685528D02*
X200913853Y-179756957D01*
X200913853Y-179756957D02*
X200985282Y-179899814D01*
X200985282Y-179899814D02*
X200985282Y-180685528D01*
X200985282Y-179899814D02*
X201056710Y-179756957D01*
X201056710Y-179756957D02*
X201199567Y-179685528D01*
X201199567Y-179685528D02*
X201413853Y-179685528D01*
X201413853Y-179685528D02*
X201556710Y-179756957D01*
X201556710Y-179756957D02*
X201628139Y-179899814D01*
X201628139Y-179899814D02*
X201628139Y-180685528D01*
X202342424Y-179685528D02*
X202342424Y-181185528D01*
X202342424Y-179756957D02*
X202485282Y-179685528D01*
X202485282Y-179685528D02*
X202770996Y-179685528D01*
X202770996Y-179685528D02*
X202913853Y-179756957D01*
X202913853Y-179756957D02*
X202985282Y-179828385D01*
X202985282Y-179828385D02*
X203056710Y-179971242D01*
X203056710Y-179971242D02*
X203056710Y-180399814D01*
X203056710Y-180399814D02*
X202985282Y-180542671D01*
X202985282Y-180542671D02*
X202913853Y-180614100D01*
X202913853Y-180614100D02*
X202770996Y-180685528D01*
X202770996Y-180685528D02*
X202485282Y-180685528D01*
X202485282Y-180685528D02*
X202342424Y-180614100D01*
X204270996Y-180614100D02*
X204128139Y-180685528D01*
X204128139Y-180685528D02*
X203842425Y-180685528D01*
X203842425Y-180685528D02*
X203699567Y-180614100D01*
X203699567Y-180614100D02*
X203628139Y-180471242D01*
X203628139Y-180471242D02*
X203628139Y-179899814D01*
X203628139Y-179899814D02*
X203699567Y-179756957D01*
X203699567Y-179756957D02*
X203842425Y-179685528D01*
X203842425Y-179685528D02*
X204128139Y-179685528D01*
X204128139Y-179685528D02*
X204270996Y-179756957D01*
X204270996Y-179756957D02*
X204342425Y-179899814D01*
X204342425Y-179899814D02*
X204342425Y-180042671D01*
X204342425Y-180042671D02*
X203628139Y-180185528D01*
X205628139Y-180685528D02*
X205628139Y-179185528D01*
X205628139Y-180614100D02*
X205485281Y-180685528D01*
X205485281Y-180685528D02*
X205199567Y-180685528D01*
X205199567Y-180685528D02*
X205056710Y-180614100D01*
X205056710Y-180614100D02*
X204985281Y-180542671D01*
X204985281Y-180542671D02*
X204913853Y-180399814D01*
X204913853Y-180399814D02*
X204913853Y-179971242D01*
X204913853Y-179971242D02*
X204985281Y-179828385D01*
X204985281Y-179828385D02*
X205056710Y-179756957D01*
X205056710Y-179756957D02*
X205199567Y-179685528D01*
X205199567Y-179685528D02*
X205485281Y-179685528D01*
X205485281Y-179685528D02*
X205628139Y-179756957D01*
X206913853Y-180614100D02*
X206770996Y-180685528D01*
X206770996Y-180685528D02*
X206485282Y-180685528D01*
X206485282Y-180685528D02*
X206342424Y-180614100D01*
X206342424Y-180614100D02*
X206270996Y-180471242D01*
X206270996Y-180471242D02*
X206270996Y-179899814D01*
X206270996Y-179899814D02*
X206342424Y-179756957D01*
X206342424Y-179756957D02*
X206485282Y-179685528D01*
X206485282Y-179685528D02*
X206770996Y-179685528D01*
X206770996Y-179685528D02*
X206913853Y-179756957D01*
X206913853Y-179756957D02*
X206985282Y-179899814D01*
X206985282Y-179899814D02*
X206985282Y-180042671D01*
X206985282Y-180042671D02*
X206270996Y-180185528D01*
D10*
D11*
X197002200Y-191507200D02*
X197002200Y-194507200D01*
D10*
D11*
X261002200Y-191507200D02*
X261002200Y-198007200D01*
D14*
X110203760Y-90825000D02*
X182503760Y-90825000D01*
X182503760Y-161702837D01*
X110203760Y-161702837D01*
X110203760Y-90825000D01*
M02*
