%TF.GenerationSoftware,KiCad,Pcbnew,9.0.0*%
%TF.CreationDate,2026-04-16T11:25:54-05:00*%
%TF.ProjectId,Standalone Board,5374616e-6461-46c6-9f6e-6520426f6172,rev?*%
%TF.SameCoordinates,Original*%
%TF.FileFunction,Drillmap*%
%TF.FilePolarity,Positive*%
%FSLAX45Y45*%
G04 Gerber Fmt 4.5, Leading zero omitted, Abs format (unit mm)*
G04 Created by KiCad (PCBNEW 9.0.0) date 2026-04-16 11:25:54*
%MOMM*%
%LPD*%
G01*
G04 APERTURE LIST*
%ADD10C,0.050000*%
%ADD11C,0.200000*%
G04 APERTURE END LIST*
D10*
X7430000Y-3010000D02*
X9295000Y-3010000D01*
X9295000Y-11090000D01*
X7430000Y-11090000D01*
X7430000Y-3010000D01*
D11*
X7688277Y-11403984D02*
X7688277Y-11203984D01*
X7688277Y-11203984D02*
X7735896Y-11203984D01*
X7735896Y-11203984D02*
X7764467Y-11213508D01*
X7764467Y-11213508D02*
X7783515Y-11232555D01*
X7783515Y-11232555D02*
X7793039Y-11251603D01*
X7793039Y-11251603D02*
X7802562Y-11289698D01*
X7802562Y-11289698D02*
X7802562Y-11318269D01*
X7802562Y-11318269D02*
X7793039Y-11356365D01*
X7793039Y-11356365D02*
X7783515Y-11375412D01*
X7783515Y-11375412D02*
X7764467Y-11394460D01*
X7764467Y-11394460D02*
X7735896Y-11403984D01*
X7735896Y-11403984D02*
X7688277Y-11403984D01*
X7888277Y-11403984D02*
X7888277Y-11270650D01*
X7888277Y-11308746D02*
X7897801Y-11289698D01*
X7897801Y-11289698D02*
X7907324Y-11280174D01*
X7907324Y-11280174D02*
X7926372Y-11270650D01*
X7926372Y-11270650D02*
X7945420Y-11270650D01*
X8012086Y-11403984D02*
X8012086Y-11270650D01*
X8012086Y-11203984D02*
X8002562Y-11213508D01*
X8002562Y-11213508D02*
X8012086Y-11223031D01*
X8012086Y-11223031D02*
X8021610Y-11213508D01*
X8021610Y-11213508D02*
X8012086Y-11203984D01*
X8012086Y-11203984D02*
X8012086Y-11223031D01*
X8135896Y-11403984D02*
X8116848Y-11394460D01*
X8116848Y-11394460D02*
X8107324Y-11375412D01*
X8107324Y-11375412D02*
X8107324Y-11203984D01*
X8240658Y-11403984D02*
X8221610Y-11394460D01*
X8221610Y-11394460D02*
X8212086Y-11375412D01*
X8212086Y-11375412D02*
X8212086Y-11203984D01*
X8469229Y-11403984D02*
X8469229Y-11203984D01*
X8469229Y-11203984D02*
X8535896Y-11346841D01*
X8535896Y-11346841D02*
X8602563Y-11203984D01*
X8602563Y-11203984D02*
X8602563Y-11403984D01*
X8783515Y-11403984D02*
X8783515Y-11299222D01*
X8783515Y-11299222D02*
X8773991Y-11280174D01*
X8773991Y-11280174D02*
X8754944Y-11270650D01*
X8754944Y-11270650D02*
X8716848Y-11270650D01*
X8716848Y-11270650D02*
X8697801Y-11280174D01*
X8783515Y-11394460D02*
X8764467Y-11403984D01*
X8764467Y-11403984D02*
X8716848Y-11403984D01*
X8716848Y-11403984D02*
X8697801Y-11394460D01*
X8697801Y-11394460D02*
X8688277Y-11375412D01*
X8688277Y-11375412D02*
X8688277Y-11356365D01*
X8688277Y-11356365D02*
X8697801Y-11337317D01*
X8697801Y-11337317D02*
X8716848Y-11327793D01*
X8716848Y-11327793D02*
X8764467Y-11327793D01*
X8764467Y-11327793D02*
X8783515Y-11318269D01*
X8878753Y-11270650D02*
X8878753Y-11470650D01*
X8878753Y-11280174D02*
X8897801Y-11270650D01*
X8897801Y-11270650D02*
X8935896Y-11270650D01*
X8935896Y-11270650D02*
X8954944Y-11280174D01*
X8954944Y-11280174D02*
X8964467Y-11289698D01*
X8964467Y-11289698D02*
X8973991Y-11308746D01*
X8973991Y-11308746D02*
X8973991Y-11365888D01*
X8973991Y-11365888D02*
X8964467Y-11384936D01*
X8964467Y-11384936D02*
X8954944Y-11394460D01*
X8954944Y-11394460D02*
X8935896Y-11403984D01*
X8935896Y-11403984D02*
X8897801Y-11403984D01*
X8897801Y-11403984D02*
X8878753Y-11394460D01*
X9059705Y-11384936D02*
X9069229Y-11394460D01*
X9069229Y-11394460D02*
X9059705Y-11403984D01*
X9059705Y-11403984D02*
X9050182Y-11394460D01*
X9050182Y-11394460D02*
X9059705Y-11384936D01*
X9059705Y-11384936D02*
X9059705Y-11403984D01*
X9059705Y-11280174D02*
X9069229Y-11289698D01*
X9069229Y-11289698D02*
X9059705Y-11299222D01*
X9059705Y-11299222D02*
X9050182Y-11289698D01*
X9050182Y-11289698D02*
X9059705Y-11280174D01*
X9059705Y-11280174D02*
X9059705Y-11299222D01*
M02*
